<svg xmlns="http://www.w3.org/2000/svg"
    viewBox="0 0 538 260"
    width="538"
    height="260">
    <g fill="None" fill-opacity="0.0" stroke="#FEFDFD" stroke-opacity="1.00" stroke-width="0.3">
        <path
            d="
M 0.00 260.00 
L 538.00 260.00
L 538.00 0.00
L 0.00 0.00
L 0.00 260.00
M 223.00 47.00 
C 225.86 47.83 223.47 58.40 224.00 62.00 C 224.53 65.60 224.00 73.43 224.00 78.00 C 224.00 82.57 224.43 90.20 224.00 95.00
C 225.00 95.00 226.00 95.00 227.00 95.00
C 230.63 87.85 226.36 77.74 228.00 70.00
C 236.07 71.19 244.97 68.07 252.00 70.00
C 252.32 70.24 253.00 70.00 253.00 70.00
C 275.12 70.00 296.29 69.33 318.00 70.00
C 318.00 78.33 318.00 86.67 318.00 95.00
C 327.67 95.00 337.33 95.00 347.00 95.00
C 346.18 88.83 335.80 93.41 331.00 92.00
C 331.00 83.67 331.00 75.33 331.00 67.00
C 336.33 67.00 341.67 67.00 347.00 67.00
C 347.00 66.00 347.00 65.00 347.00 64.00
C 341.31 65.10 328.24 64.88 330.00 58.00 C 331.77 51.12 326.31 39.89 333.03 38.03 C 339.75 36.17 349.42 38.36 356.00 38.00 C 362.58 37.64 373.27 37.14 379.00 38.00 C 384.73 38.86 398.10 34.86 401.00 39.00
C 402.32 40.89 401.00 48.59 401.00 51.00 C 401.00 53.41 402.32 61.11 401.00 63.00
C 398.49 66.59 388.74 62.39 385.00 64.00
C 385.00 65.00 385.00 66.00 385.00 67.00
C 390.33 67.00 395.67 67.00 401.00 67.00
C 401.00 75.33 401.00 83.67 401.00 92.00
C 395.33 92.00 389.67 92.00 384.00 92.00
C 384.32 92.84 383.60 94.20 384.00 95.00
C 397.67 95.00 411.33 95.00 425.00 95.00
C 424.18 88.83 413.80 93.41 409.00 92.00
C 409.00 83.67 409.00 75.33 409.00 67.00
C 414.16 66.35 420.66 68.31 425.00 66.00
C 423.53 60.48 411.86 67.09 409.00 63.00
C 407.68 61.11 409.00 53.41 409.00 51.00 C 409.00 48.59 407.68 40.89 409.00 39.00
C 411.41 35.56 421.55 38.74 426.00 38.00 C 430.45 37.26 439.15 38.00 444.00 38.00 C 448.85 38.00 457.53 37.27 462.00 38.00 C 466.47 38.73 476.60 35.57 479.00 39.00
C 480.32 40.89 479.00 48.59 479.00 51.00 C 479.00 53.41 480.32 61.11 479.00 63.00
C 476.49 66.59 466.74 62.39 463.00 64.00
C 463.00 65.00 463.00 66.00 463.00 67.00
C 468.33 67.00 473.67 67.00 479.00 67.00
C 479.00 75.33 479.00 83.67 479.00 92.00
C 473.33 92.00 467.67 92.00 462.00 92.00
C 462.00 93.00 462.00 94.00 462.00 95.00
C 472.00 95.00 482.00 95.00 492.00 95.00
C 492.03 83.57 494.06 70.18 493.00 58.00
C 499.67 58.00 506.33 58.00 513.00 58.00
C 513.00 106.00 513.00 154.00 513.00 202.00
C 506.33 202.00 499.67 202.00 493.00 202.00
C 493.00 190.00 493.00 178.00 493.00 166.00
C 483.48 167.30 470.10 163.38 463.00 168.00
C 468.33 168.00 473.67 168.00 479.00 168.00
C 479.00 176.33 479.00 184.67 479.00 193.00
C 473.33 193.00 467.67 193.00 462.00 193.00
C 462.00 194.33 462.00 195.67 462.00 197.00
C 467.67 197.00 473.33 197.00 479.00 197.00
C 479.00 205.00 479.00 213.00 479.00 221.00
C 455.67 221.00 432.33 221.00 409.00 221.00
C 409.00 213.00 409.00 205.00 409.00 197.00
C 414.33 197.00 419.67 197.00 425.00 197.00
C 425.54 189.33 413.92 194.51 409.00 193.00
C 409.00 184.67 409.00 176.33 409.00 168.00
C 414.61 167.46 420.82 169.16 426.00 167.00
C 425.75 166.74 426.00 166.00 426.00 166.00
C 421.11 162.05 412.21 166.24 406.00 165.00 C 399.79 163.76 390.49 165.93 384.00 165.00
C 384.00 166.00 384.00 167.00 384.00 168.00
C 389.67 168.00 395.33 168.00 401.00 168.00
C 401.00 176.33 401.00 184.67 401.00 193.00
C 395.33 193.00 389.67 193.00 384.00 193.00
C 384.00 194.33 384.00 195.67 384.00 197.00
C 389.67 197.00 395.33 197.00 401.00 197.00
C 401.00 205.00 401.00 213.00 401.00 221.00
C 377.67 221.00 354.33 221.00 331.00 221.00
C 331.00 213.00 331.00 205.00 331.00 197.00
C 336.33 197.00 341.67 197.00 347.00 197.00
C 347.54 189.33 335.92 194.51 331.00 193.00
C 331.00 184.67 331.00 176.33 331.00 168.00
C 335.91 166.83 344.49 170.44 347.00 166.00
C 337.41 166.86 327.61 165.35 318.00 166.00
C 318.00 174.33 318.00 182.67 318.00 191.00
C 312.33 191.00 306.67 191.00 301.00 191.00
C 298.70 191.00 296.29 191.21 294.00 191.00
C 272.00 188.98 249.96 191.16 228.00 190.00
C 228.00 182.00 228.00 174.00 228.00 166.00
C 226.67 166.00 225.33 166.00 224.00 166.00
C 224.00 172.97 224.51 185.60 224.00 192.00 C 223.49 198.40 226.30 212.93 222.00 214.00
C 212.15 216.45 201.20 212.76 191.00 214.00 C 180.80 215.24 169.32 213.07 159.00 214.00
C 159.24 216.65 158.82 219.35 159.00 222.00
C 155.33 222.00 151.67 222.00 148.00 222.00
C 148.00 231.00 148.00 240.00 148.00 249.00
C 144.67 249.00 141.33 249.00 138.00 249.00
C 128.79 248.02 131.42 228.46 132.00 222.00
C 111.94 221.99 90.96 223.80 71.00 222.00
C 67.61 218.74 70.99 208.57 70.00 204.00
C 65.07 201.18 52.34 198.40 47.93 196.07 C 43.51 193.75 31.56 185.30 35.00 181.00
C 33.27 180.09 30.88 179.15 29.00 178.00
C 25.16 175.65 22.53 172.32 22.00 168.00
C 18.36 153.87 23.63 133.22 22.00 119.00 C 20.37 104.78 19.01 87.04 33.00 81.00
C 33.41 80.82 34.73 80.25 35.00 80.00
C 35.26 79.76 35.65 79.05 36.00 79.00
C 40.62 67.92 50.72 63.07 62.00 60.00
C 65.22 58.62 65.86 58.85 69.00 59.00
C 69.15 58.86 70.81 57.79 71.00 58.00
C 71.00 54.18 68.91 41.99 71.00 39.00
C 73.80 35.00 84.62 39.04 90.00 38.00 C 95.38 36.96 104.85 38.39 111.00 38.00 C 117.15 37.61 125.63 38.00 132.00 38.00
C 131.43 31.70 128.93 11.97 138.00 11.00
C 154.79 9.48 145.72 26.76 148.00 38.00
C 154.16 37.03 161.57 37.77 159.00 46.00
C 180.17 46.67 202.65 44.67 223.00 47.00 Z" />
    </g>
    <g fill="None" fill-opacity="0.0" stroke="#F6D0C3" stroke-opacity="1.00" stroke-width="0.3">
        <path
            d="
M 132.00 38.00 
C 132.50 38.00 133.00 38.00 133.00 38.00
C 133.00 29.18 130.11 17.51 138.00 12.00
C 138.23 11.84 138.00 11.00 138.00 11.00
C 128.93 11.97 131.43 31.70 132.00 38.00 Z" />
    </g>
    <g fill="None" fill-opacity="0.0" stroke="#D9938B" stroke-opacity="1.00" stroke-width="0.3">
        <path
            d="
M 138.00 12.00 
C 140.98 12.27 144.02 11.80 147.00 12.00
C 147.62 20.92 145.73 30.52 148.00 39.00
C 150.22 40.57 155.50 37.82 158.00 39.00
C 158.00 41.33 158.00 43.67 158.00 46.00
C 164.64 46.70 172.06 46.87 179.00 47.00 C 185.94 47.13 194.31 45.95 201.00 47.00 C 207.69 48.05 216.99 44.33 223.00 47.00
C 202.65 44.67 180.17 46.67 159.00 46.00
C 161.57 37.77 154.16 37.03 148.00 38.00
C 145.72 26.76 154.79 9.48 138.00 11.00
C 138.00 11.00 138.23 11.84 138.00 12.00 Z" />
    </g>
    <g fill="None" fill-opacity="0.0" stroke="#E53E25" stroke-opacity="1.00" stroke-width="0.3">
        <path
            d="
M 133.00 38.00 
C 133.00 38.50 133.00 39.00 133.00 39.00
C 133.00 39.50 133.00 40.00 133.00 40.00
C 133.00 45.33 133.00 50.67 133.00 56.00
C 122.48 58.25 114.90 69.05 117.00 80.00
C 94.67 80.00 72.33 80.00 50.00 80.00
C 45.35 80.00 39.53 79.04 35.00 80.00
C 34.73 80.25 33.41 80.82 33.00 81.00
C 21.98 90.87 20.75 105.48 23.00 121.00 C 25.25 136.52 19.34 156.09 23.00 170.00
C 24.10 172.36 26.89 176.48 29.00 178.00
C 30.88 179.15 33.27 180.09 35.00 181.00
C 35.39 181.21 36.00 181.00 36.00 181.00
C 39.76 178.22 46.80 180.61 51.00 181.00
C 72.48 183.02 94.48 179.49 116.00 181.00
C 114.86 191.61 122.89 201.69 133.00 204.00
C 133.00 209.33 133.00 214.67 133.00 220.00
C 133.00 220.50 133.00 221.00 133.00 221.00
C 133.00 221.50 133.00 222.00 133.00 222.00
C 133.00 228.36 131.94 235.74 133.00 242.00
C 133.36 243.56 135.64 246.72 137.00 248.00
C 137.40 248.20 138.00 248.00 138.00 248.00
C 141.00 248.00 144.00 248.00 147.00 248.00
C 147.62 239.08 145.73 229.48 148.00 221.00
C 147.99 218.56 145.93 214.19 147.00 211.00
C 141.50 212.67 140.04 208.75 141.00 204.00
C 147.00 204.00 153.00 204.00 159.00 204.00
C 160.77 215.03 176.86 208.75 187.00 210.00 C 197.14 211.25 211.48 209.07 222.00 210.00
C 222.50 210.00 223.00 210.00 223.00 210.00
C 223.86 195.11 223.00 179.91 223.00 165.00
C 223.00 142.00 222.99 119.00 223.00 96.00
C 223.00 95.50 223.00 95.00 223.00 95.00
C 223.00 79.67 223.00 64.33 223.00 49.00
C 221.90 52.58 209.22 49.07 204.00 50.00 C 198.78 50.93 188.39 49.53 182.00 50.00 C 175.61 50.47 165.71 49.65 159.00 50.00
C 158.44 58.81 147.14 53.62 141.00 55.00
C 138.62 48.83 144.69 51.29 147.22 49.22 C 149.76 47.15 144.34 41.02 148.00 39.00
C 145.73 30.52 147.62 20.92 147.00 12.00
C 144.02 11.80 140.98 12.27 138.00 12.00
C 130.11 17.51 133.00 29.18 133.00 38.00
M 159.00 62.00 
C 159.00 107.33 159.00 152.67 159.00 198.00
C 146.11 198.55 122.72 201.18 122.02 182.98 C 121.33 164.77 122.17 148.10 122.00 130.00 C 121.83 111.90 121.77 96.40 122.00 78.00 C 122.23 59.60 145.45 60.79 159.00 62.00 Z" />
    </g>
    <g fill="None" fill-opacity="0.0" stroke="#BD8C84" stroke-opacity="1.00" stroke-width="0.3">
        <path
            d="
M 71.00 39.00 
C 91.54 37.61 112.50 40.85 133.00 39.00
C 133.00 39.00 133.00 38.50 133.00 38.00
C 133.00 38.00 132.50 38.00 132.00 38.00
C 125.63 38.00 117.15 37.61 111.00 38.00 C 104.85 38.39 95.38 36.96 90.00 38.00 C 84.62 39.04 73.80 35.00 71.00 39.00 Z" />
    </g>
    <g fill="None" fill-opacity="0.0" stroke="#B0B0B0" stroke-opacity="1.00" stroke-width="0.3">
        <path
            d="
M 347.00 64.00 
C 345.27 60.44 334.15 64.59 331.00 63.00
C 331.00 55.00 331.00 47.00 331.00 39.00
C 354.33 39.00 377.67 39.00 401.00 39.00
C 398.10 34.86 384.73 38.86 379.00 38.00 C 373.27 37.14 362.58 37.64 356.00 38.00 C 349.42 38.36 339.75 36.17 333.03 38.03 C 326.31 39.89 331.77 51.12 330.00 58.00 C 328.24 64.88 341.31 65.10 347.00 64.00 Z" />
    </g>
    <g fill="None" fill-opacity="0.0" stroke="#ADADAD" stroke-opacity="1.00" stroke-width="0.3">
        <path
            d="
M 409.00 39.00 
C 432.33 39.00 455.67 39.00 479.00 39.00
C 476.60 35.57 466.47 38.73 462.00 38.00 C 457.53 37.27 448.85 38.00 444.00 38.00 C 439.15 38.00 430.45 37.26 426.00 38.00 C 421.55 38.74 411.41 35.56 409.00 39.00 Z" />
    </g>
    <g fill="None" fill-opacity="0.0" stroke="#842419" stroke-opacity="1.00" stroke-width="0.3">
        <path
            d="
M 71.00 58.00 
C 71.00 58.50 71.00 59.00 71.00 59.00
C 75.96 56.65 75.73 48.12 82.70 46.70 C 89.66 45.28 99.26 46.22 107.00 46.00 C 114.74 45.78 124.11 46.16 132.00 46.00
C 132.47 44.12 130.94 41.07 133.00 40.00
C 133.00 40.00 133.00 39.50 133.00 39.00
C 112.50 40.85 91.54 37.61 71.00 39.00
C 68.91 41.99 71.00 54.18 71.00 58.00 Z" />
    </g>
    <g fill="None" fill-opacity="0.0" stroke="#B13124" stroke-opacity="1.00" stroke-width="0.3">
        <path
            d="
M 223.00 49.00 
C 223.00 48.50 223.19 47.08 223.00 47.00
C 216.99 44.33 207.69 48.05 201.00 47.00 C 194.31 45.95 185.94 47.13 179.00 47.00 C 172.06 46.87 164.64 46.70 158.00 46.00
C 155.87 45.78 151.10 46.24 148.00 46.00
C 148.00 43.67 148.00 41.33 148.00 39.00
C 144.34 41.02 149.76 47.15 147.22 49.22 C 144.69 51.29 138.62 48.83 141.00 55.00
C 147.14 53.62 158.44 58.81 159.00 50.00
C 165.71 49.65 175.61 50.47 182.00 50.00 C 188.39 49.53 198.78 50.93 204.00 50.00 C 209.22 49.07 221.90 52.58 223.00 49.00 Z" />
    </g>
    <g fill="None" fill-opacity="0.0" stroke="#812117" stroke-opacity="1.00" stroke-width="0.3">
        <path
            d="
M 158.00 46.00 
C 158.00 43.67 158.00 41.33 158.00 39.00
C 155.50 37.82 150.22 40.57 148.00 39.00
C 148.00 41.33 148.00 43.67 148.00 46.00
C 151.10 46.24 155.87 45.78 158.00 46.00 Z" />
    </g>
    <g fill="None" fill-opacity="0.0" stroke="#666666" stroke-opacity="1.00" stroke-width="0.3">
        <path
            d="
M 347.00 64.00 
C 347.00 65.00 347.00 66.00 347.00 67.00
C 341.67 67.00 336.33 67.00 331.00 67.00
C 331.00 75.33 331.00 83.67 331.00 92.00
C 335.80 93.41 346.18 88.83 347.00 95.00
C 337.33 95.00 327.67 95.00 318.00 95.00
C 312.33 95.00 306.67 95.00 301.00 95.00
C 301.00 86.67 301.00 78.33 301.00 70.00
C 298.67 70.00 296.33 70.00 294.00 70.00
C 294.00 78.33 294.00 86.67 294.00 95.00
C 311.72 95.35 330.31 96.86 348.00 95.00
C 348.82 93.83 347.40 92.97 349.00 92.00
C 353.05 89.55 361.02 92.84 366.00 92.00 C 370.98 91.16 378.77 92.00 384.00 92.00
C 389.67 92.00 395.33 92.00 401.00 92.00
C 401.00 83.67 401.00 75.33 401.00 67.00
C 395.67 67.00 390.33 67.00 385.00 67.00
C 384.50 67.00 384.00 67.00 384.00 67.00
C 372.00 67.00 360.00 67.00 348.00 67.00
C 349.55 61.39 358.20 64.65 364.00 64.00 C 369.80 63.35 377.98 64.49 384.00 64.00
C 388.93 63.52 395.36 62.28 401.00 63.00
C 402.32 61.11 401.00 53.41 401.00 51.00 C 401.00 48.59 402.32 40.89 401.00 39.00
C 377.67 39.00 354.33 39.00 331.00 39.00
C 331.00 47.00 331.00 55.00 331.00 63.00
C 334.15 64.59 345.27 60.44 347.00 64.00 Z" />
    </g>
    <g fill="None" fill-opacity="0.0" stroke="#656565" stroke-opacity="1.00" stroke-width="0.3">
        <path
            d="
M 409.00 63.00 
C 414.73 62.29 420.66 63.50 426.00 64.00
C 437.30 65.06 450.70 65.06 462.00 64.00
C 467.34 63.50 473.29 62.30 479.00 63.00
C 480.32 61.11 479.00 53.41 479.00 51.00 C 479.00 48.59 480.32 40.89 479.00 39.00
C 455.67 39.00 432.33 39.00 409.00 39.00
C 407.68 40.89 409.00 48.59 409.00 51.00 C 409.00 53.41 407.68 61.11 409.00 63.00 Z" />
    </g>
    <g fill="None" fill-opacity="0.0" stroke="#B33023" stroke-opacity="1.00" stroke-width="0.3">
        <path
            d="
M 71.00 59.00 
C 67.23 61.64 63.99 66.82 60.25 69.25 C 56.50 71.68 53.74 78.62 50.00 80.00
C 72.33 80.00 94.67 80.00 117.00 80.00
C 114.90 69.05 122.48 58.25 133.00 56.00
C 133.00 50.67 133.00 45.33 133.00 40.00
C 130.94 41.07 132.47 44.12 132.00 46.00
C 124.11 46.16 114.74 45.78 107.00 46.00 C 99.26 46.22 89.66 45.28 82.70 46.70 C 75.73 48.12 75.96 56.65 71.00 59.00 Z" />
    </g>
    <g fill="None" fill-opacity="0.0" stroke="#FEE1D8" stroke-opacity="1.00" stroke-width="0.3">
        <path
            d="
M 223.00 49.00 
C 223.00 64.33 223.00 79.67 223.00 95.00
C 223.25 94.75 224.00 95.00 224.00 95.00
C 224.43 90.20 224.00 82.57 224.00 78.00 C 224.00 73.43 224.53 65.60 224.00 62.00 C 223.47 58.40 225.86 47.83 223.00 47.00
C 223.19 47.08 223.00 48.50 223.00 49.00 Z" />
    </g>
    <g fill="None" fill-opacity="0.0" stroke="#FBFAD6" stroke-opacity="1.00" stroke-width="0.3">
        <path
            d="
M 62.00 60.00 
C 63.92 59.48 65.96 59.20 68.00 59.00
C 68.49 58.95 69.00 59.00 69.00 59.00
C 65.86 58.85 65.22 58.62 62.00 60.00 Z" />
    </g>
    <g fill="None" fill-opacity="0.0" stroke="#DC7A28" stroke-opacity="1.00" stroke-width="0.3">
        <path
            d="
M 69.00 59.00 
C 63.66 63.99 56.08 76.88 49.00 79.00
C 45.09 80.17 40.05 78.42 36.00 79.00
C 35.65 79.05 35.26 79.76 35.00 80.00
C 39.53 79.04 45.35 80.00 50.00 80.00
C 53.74 78.62 56.50 71.68 60.25 69.25 C 63.99 66.82 67.23 61.64 71.00 59.00
C 71.00 59.00 71.00 58.50 71.00 58.00
C 70.81 57.79 69.15 58.86 69.00 59.00 Z" />
    </g>
    <g fill="None" fill-opacity="0.0" stroke="#CBCBCB" stroke-opacity="1.00" stroke-width="0.3">
        <path
            d="
M 492.00 95.00 
C 491.93 117.82 494.13 141.76 493.00 165.00
C 482.67 165.00 472.33 165.00 462.00 165.00
C 462.21 165.55 461.59 167.61 462.00 168.00
C 462.50 168.00 463.00 168.00 463.00 168.00
C 470.10 163.38 483.48 167.30 493.00 166.00
C 493.00 178.00 493.00 190.00 493.00 202.00
C 499.67 202.00 506.33 202.00 513.00 202.00
C 513.00 154.00 513.00 106.00 513.00 58.00
C 506.33 58.00 499.67 58.00 493.00 58.00
C 494.06 70.18 492.03 83.57 492.00 95.00 Z" />
    </g>
    <g fill="None" fill-opacity="0.0" stroke="#F9CF39" stroke-opacity="1.00" stroke-width="0.3">
        <path
            d="
M 62.00 60.00 
C 50.72 63.07 40.62 67.92 36.00 79.00
C 40.05 78.42 45.09 80.17 49.00 79.00
C 52.32 77.77 55.05 71.57 58.25 69.25 C 61.45 66.93 65.75 62.22 68.00 59.00
C 65.96 59.20 63.92 59.48 62.00 60.00 Z" />
    </g>
    <g fill="None" fill-opacity="0.0" stroke="#F6AF30" stroke-opacity="1.00" stroke-width="0.3">
        <path
            d="
M 49.00 79.00 
C 56.08 76.88 63.66 63.99 69.00 59.00
C 69.00 59.00 68.49 58.95 68.00 59.00
C 65.75 62.22 61.45 66.93 58.25 69.25 C 55.05 71.57 52.32 77.77 49.00 79.00 Z" />
    </g>
    <g fill="None" fill-opacity="0.0" stroke="#803A2E" stroke-opacity="1.00" stroke-width="0.3">
        <path
            d="
M 159.00 62.00 
C 145.45 60.79 122.23 59.60 122.00 78.00 C 121.77 96.40 121.83 111.90 122.00 130.00 C 122.17 148.10 121.33 164.77 122.02 182.98 C 122.72 201.18 146.11 198.55 159.00 198.00
C 159.00 152.67 159.00 107.33 159.00 62.00
M 158.00 116.00 
C 158.00 127.67 158.00 139.33 158.00 151.00
C 158.00 156.00 158.00 161.00 158.00 166.00
C 158.00 171.00 158.00 176.00 158.00 181.00
C 158.00 186.33 158.00 191.67 158.00 197.00
C 145.67 197.09 124.53 200.29 124.00 183.00
C 120.93 166.82 122.71 147.10 123.00 130.00 C 123.29 112.90 120.26 92.07 124.00 76.00
C 125.01 71.66 130.08 62.12 136.03 63.03 C 141.97 63.93 156.28 59.12 157.97 66.03 C 159.66 72.94 157.38 83.41 158.00 91.00 C 158.62 98.59 158.00 108.22 158.00 116.00 Z" />
    </g>
    <g fill="None" fill-opacity="0.0" stroke="#323231" stroke-opacity="1.00" stroke-width="0.3">
        <path
            d="
M 124.00 76.00 
C 123.53 80.21 124.00 84.76 124.00 89.00
C 126.42 94.30 138.24 96.08 141.08 101.92 C 143.93 107.76 155.80 110.05 158.00 116.00
C 158.00 108.22 158.62 98.59 158.00 91.00 C 157.38 83.41 159.66 72.94 157.97 66.03 C 156.28 59.12 141.97 63.93 136.03 63.03 C 130.08 62.12 125.01 71.66 124.00 76.00 Z" />
    </g>
    <g fill="None" fill-opacity="0.0" stroke="#A7A7A7" stroke-opacity="1.00" stroke-width="0.3">
        <path
            d="
M 384.00 64.00 
C 383.90 64.20 383.86 66.87 384.00 67.00
C 384.00 67.00 384.50 67.00 385.00 67.00
C 385.00 66.00 385.00 65.00 385.00 64.00
C 388.74 62.39 398.49 66.59 401.00 63.00
C 395.36 62.28 388.93 63.52 384.00 64.00 Z" />
    </g>
    <g fill="None" fill-opacity="0.0" stroke="#A1A1A1" stroke-opacity="1.00" stroke-width="0.3">
        <path
            d="
M 425.00 66.00 
C 425.32 65.76 426.00 66.00 426.00 66.00
C 426.23 65.84 426.24 64.31 426.00 64.00
C 420.66 63.50 414.73 62.29 409.00 63.00
C 411.86 67.09 423.53 60.48 425.00 66.00 Z" />
    </g>
    <g fill="None" fill-opacity="0.0" stroke="#A3A3A3" stroke-opacity="1.00" stroke-width="0.3">
        <path
            d="
M 462.00 64.00 
C 461.90 64.19 461.87 66.88 462.00 67.00
C 462.50 67.00 463.00 67.00 463.00 67.00
C 463.00 66.00 463.00 65.00 463.00 64.00
C 466.74 62.39 476.49 66.59 479.00 63.00
C 473.29 62.30 467.34 63.50 462.00 64.00 Z" />
    </g>
    <g fill="None" fill-opacity="0.0" stroke="#1C1C1C" stroke-opacity="1.00" stroke-width="0.3">
        <path
            d="
M 384.00 67.00 
C 383.86 66.87 383.90 64.20 384.00 64.00
C 377.98 64.49 369.80 63.35 364.00 64.00 C 358.20 64.65 349.55 61.39 348.00 67.00
C 360.00 67.00 372.00 67.00 384.00 67.00 Z" />
    </g>
    <g fill="None" fill-opacity="0.0" stroke="#1B1B1B" stroke-opacity="1.00" stroke-width="0.3">
        <path
            d="
M 426.00 66.00 
C 430.11 69.05 437.52 66.45 443.00 67.00 C 448.48 67.55 456.31 67.00 462.00 67.00
C 461.87 66.88 461.90 64.19 462.00 64.00
C 450.70 65.06 437.30 65.06 426.00 64.00
C 426.24 64.31 426.23 65.84 426.00 66.00 Z" />
    </g>
    <g fill="None" fill-opacity="0.0" stroke="#676767" stroke-opacity="1.00" stroke-width="0.3">
        <path
            d="
M 384.00 95.00 
C 385.97 99.00 399.30 94.67 404.00 96.00 C 408.70 97.33 419.72 95.01 425.00 96.00
C 426.81 89.24 434.77 92.56 441.00 92.00 C 447.23 91.44 455.58 92.42 462.00 92.00
C 467.67 92.00 473.33 92.00 479.00 92.00
C 479.00 83.67 479.00 75.33 479.00 67.00
C 473.67 67.00 468.33 67.00 463.00 67.00
C 463.00 67.00 462.50 67.00 462.00 67.00
C 456.31 67.00 448.48 67.55 443.00 67.00 C 437.52 66.45 430.11 69.05 426.00 66.00
C 426.00 66.00 425.32 65.76 425.00 66.00
C 420.66 68.31 414.16 66.35 409.00 67.00
C 409.00 75.33 409.00 83.67 409.00 92.00
C 413.80 93.41 424.18 88.83 425.00 95.00
C 411.33 95.00 397.67 95.00 384.00 95.00 Z" />
    </g>
    <g fill="None" fill-opacity="0.0" stroke="#C0C0C0" stroke-opacity="1.00" stroke-width="0.3">
        <path
            d="
M 227.00 95.00 
C 227.50 95.00 228.00 95.00 228.00 95.00
C 233.67 95.00 239.33 95.00 245.00 95.00
C 245.00 86.67 245.00 78.33 245.00 70.00
C 247.33 70.00 249.67 70.00 252.00 70.00
C 244.97 68.07 236.07 71.19 228.00 70.00
C 226.36 77.74 230.63 87.85 227.00 95.00 Z" />
    </g>
    <g fill="None" fill-opacity="0.0" stroke="#C2C2C2" stroke-opacity="1.00" stroke-width="0.3">
        <path
            d="
M 253.00 70.00 
C 253.72 77.94 252.46 86.05 253.00 94.00
C 266.33 94.00 279.67 94.00 293.00 94.00
C 293.66 86.17 291.67 77.01 294.00 70.00
C 296.33 70.00 298.67 70.00 301.00 70.00
C 301.00 78.33 301.00 86.67 301.00 95.00
C 306.67 95.00 312.33 95.00 318.00 95.00
C 318.00 86.67 318.00 78.33 318.00 70.00
C 296.29 69.33 275.12 70.00 253.00 70.00 Z" />
    </g>
    <g fill="None" fill-opacity="0.0" stroke="#676767" stroke-opacity="1.00" stroke-width="0.3">
        <path
            d="
M 245.00 95.00 
C 247.33 95.00 249.67 95.00 252.00 95.00
C 252.56 86.72 251.25 78.27 252.00 70.00
C 249.67 70.00 247.33 70.00 245.00 70.00
C 245.00 78.33 245.00 86.67 245.00 95.00 Z" />
    </g>
    <g fill="None" fill-opacity="0.0" stroke="#9C9C9C" stroke-opacity="1.00" stroke-width="0.3">
        <path
            d="
M 252.00 95.00 
C 265.99 95.00 280.01 94.72 294.00 95.00
C 294.00 86.67 294.00 78.33 294.00 70.00
C 291.67 77.01 293.66 86.17 293.00 94.00
C 279.67 94.00 266.33 94.00 253.00 94.00
C 252.46 86.05 253.72 77.94 253.00 70.00
C 253.00 70.00 252.32 70.24 252.00 70.00
C 251.25 78.27 252.56 86.72 252.00 95.00 Z" />
    </g>
    <g fill="None" fill-opacity="0.0" stroke="#4D3631" stroke-opacity="1.00" stroke-width="0.3">
        <path
            d="
M 124.00 183.00 
C 123.27 173.46 124.00 163.57 124.00 154.00
C 124.00 149.00 124.00 144.00 124.00 139.00
C 124.00 134.00 124.00 129.00 124.00 124.00
C 124.00 112.33 124.00 100.67 124.00 89.00
C 124.00 84.76 123.53 80.21 124.00 76.00
C 120.26 92.07 123.29 112.90 123.00 130.00 C 122.71 147.10 120.93 166.82 124.00 183.00 Z" />
    </g>
    <g fill="None" fill-opacity="0.0" stroke="#BB3D2C" stroke-opacity="1.00" stroke-width="0.3">
        <path
            d="
M 22.00 168.00 
C 21.98 167.94 22.91 169.81 23.00 170.00
C 19.34 156.09 25.25 136.52 23.00 121.00 C 20.75 105.48 21.98 90.87 33.00 81.00
C 19.01 87.04 20.37 104.78 22.00 119.00 C 23.63 133.22 18.36 153.87 22.00 168.00 Z" />
    </g>
    <g fill="None" fill-opacity="0.0" stroke="#4D4C4C" stroke-opacity="1.00" stroke-width="0.3">
        <path
            d="
M 124.00 124.00 
C 126.16 129.86 136.29 132.63 140.25 137.75 C 144.21 142.87 153.50 147.59 158.00 151.00
C 158.00 139.33 158.00 127.67 158.00 116.00
C 155.80 110.05 143.93 107.76 141.08 101.92 C 138.24 96.08 126.42 94.30 124.00 89.00
C 124.00 100.67 124.00 112.33 124.00 124.00 Z" />
    </g>
    <g fill="None" fill-opacity="0.0" stroke="#181818" stroke-opacity="1.00" stroke-width="0.3">
        <path
            d="
M 348.00 95.00 
C 358.29 93.92 372.57 96.65 383.00 94.00
C 372.74 91.02 359.19 94.99 349.00 92.00
C 347.40 92.97 348.82 93.83 348.00 95.00 Z" />
    </g>
    <g fill="None" fill-opacity="0.0" stroke="#333332" stroke-opacity="1.00" stroke-width="0.3">
        <path
            d="
M 348.00 95.00 
C 330.31 96.86 311.72 95.35 294.00 95.00
C 280.01 94.72 265.99 95.00 252.00 95.00
C 249.67 95.00 247.33 95.00 245.00 95.00
C 239.33 95.00 233.67 95.00 228.00 95.00
C 226.76 95.17 224.96 96.63 223.00 96.00
C 222.99 119.00 223.00 142.00 223.00 165.00
C 223.00 164.96 224.00 165.00 224.00 165.00
C 225.33 165.00 226.67 165.00 228.00 165.00
C 233.67 165.00 239.33 165.00 245.00 165.00
C 247.33 165.00 249.67 165.00 252.00 165.00
C 265.67 165.00 279.33 165.00 293.00 165.00
C 295.67 165.00 298.33 165.00 301.00 165.00
C 306.67 165.00 312.33 165.00 318.00 165.00
C 327.67 165.00 337.33 165.00 347.00 165.00
C 347.50 165.00 348.00 165.00 348.00 165.00
C 356.26 160.69 373.95 168.29 383.00 165.00
C 383.00 166.00 383.00 167.00 383.00 168.00
C 383.50 168.00 384.00 168.00 384.00 168.00
C 384.00 167.00 384.00 166.00 384.00 165.00
C 390.49 165.93 399.79 163.76 406.00 165.00 C 412.21 166.24 421.11 162.05 426.00 166.00
C 429.28 162.60 439.08 165.69 444.00 165.00 C 448.92 164.31 457.94 164.96 462.00 165.00
C 472.33 165.00 482.67 165.00 493.00 165.00
C 494.13 141.76 491.93 117.82 492.00 95.00
C 482.00 95.00 472.00 95.00 462.00 95.00
C 462.00 94.00 462.00 93.00 462.00 92.00
C 455.58 92.42 447.23 91.44 441.00 92.00 C 434.77 92.56 426.81 89.24 425.00 96.00
C 419.72 95.01 408.70 97.33 404.00 96.00 C 399.30 94.67 385.97 99.00 384.00 95.00
C 383.60 94.20 384.32 92.84 384.00 92.00
C 378.77 92.00 370.98 91.16 366.00 92.00 C 361.02 92.84 353.05 89.55 349.00 92.00
C 359.19 94.99 372.74 91.02 383.00 94.00
C 372.57 96.65 358.29 93.92 348.00 95.00 Z" />
    </g>
    <g fill="None" fill-opacity="0.0" stroke="#6C6260" stroke-opacity="1.00" stroke-width="0.3">
        <path
            d="
M 223.00 96.00 
C 224.96 96.63 226.76 95.17 228.00 95.00
C 228.00 95.00 227.50 95.00 227.00 95.00
C 226.00 95.00 225.00 95.00 224.00 95.00
C 224.00 95.00 223.25 94.75 223.00 95.00
C 223.00 95.00 223.00 95.50 223.00 96.00 Z" />
    </g>
    <g fill="None" fill-opacity="0.0" stroke="#323232" stroke-opacity="1.00" stroke-width="0.3">
        <path
            d="
M 124.00 139.00 
C 129.31 141.96 137.23 146.92 141.25 151.75 C 145.26 156.59 155.84 160.14 158.00 166.00
C 158.00 161.00 158.00 156.00 158.00 151.00
C 153.50 147.59 144.21 142.87 140.25 137.75 C 136.29 132.63 126.16 129.86 124.00 124.00
C 124.00 129.00 124.00 134.00 124.00 139.00 Z" />
    </g>
    <g fill="None" fill-opacity="0.0" stroke="#4C4C4B" stroke-opacity="1.00" stroke-width="0.3">
        <path
            d="
M 124.00 154.00 
C 126.47 159.65 137.91 161.16 140.75 167.25 C 143.59 173.33 155.73 174.84 158.00 181.00
C 158.00 176.00 158.00 171.00 158.00 166.00
C 155.84 160.14 145.26 156.59 141.25 151.75 C 137.23 146.92 129.31 141.96 124.00 139.00
C 124.00 144.00 124.00 149.00 124.00 154.00 Z" />
    </g>
    <g fill="None" fill-opacity="0.0" stroke="#333232" stroke-opacity="1.00" stroke-width="0.3">
        <path
            d="
M 124.00 183.00 
C 124.53 200.29 145.67 197.09 158.00 197.00
C 158.00 191.67 158.00 186.33 158.00 181.00
C 155.73 174.84 143.59 173.33 140.75 167.25 C 137.91 161.16 126.47 159.65 124.00 154.00
C 124.00 163.57 123.27 173.46 124.00 183.00 Z" />
    </g>
    <g fill="None" fill-opacity="0.0" stroke="#191919" stroke-opacity="1.00" stroke-width="0.3">
        <path
            d="
M 348.00 165.00 
C 347.95 166.00 348.04 167.00 348.00 168.00
C 359.67 168.00 371.33 168.00 383.00 168.00
C 383.00 167.00 383.00 166.00 383.00 165.00
C 373.95 168.29 356.26 160.69 348.00 165.00 Z" />
    </g>
    <g fill="None" fill-opacity="0.0" stroke="#181818" stroke-opacity="1.00" stroke-width="0.3">
        <path
            d="
M 426.00 166.00 
C 426.00 166.00 425.75 166.74 426.00 167.00
C 429.29 170.40 437.93 167.33 443.00 168.00 C 448.07 168.67 456.61 168.00 462.00 168.00
C 461.59 167.61 462.21 165.55 462.00 165.00
C 457.94 164.96 448.92 164.31 444.00 165.00 C 439.08 165.69 429.28 162.60 426.00 166.00 Z" />
    </g>
    <g fill="None" fill-opacity="0.0" stroke="#FDE1D9" stroke-opacity="1.00" stroke-width="0.3">
        <path
            d="
M 223.00 210.00 
C 222.90 211.69 223.46 212.96 222.00 214.00
C 226.30 212.93 223.49 198.40 224.00 192.00 C 224.51 185.60 224.00 172.97 224.00 166.00
C 224.00 165.50 224.00 165.00 224.00 165.00
C 224.00 165.00 223.00 164.96 223.00 165.00
C 223.00 179.91 223.86 195.11 223.00 210.00 Z" />
    </g>
    <g fill="None" fill-opacity="0.0" stroke="#C1C1C1" stroke-opacity="1.00" stroke-width="0.3">
        <path
            d="
M 224.00 166.00 
C 225.33 166.00 226.67 166.00 228.00 166.00
C 228.00 174.00 228.00 182.00 228.00 190.00
C 249.96 191.16 272.00 188.98 294.00 191.00
C 291.01 189.07 293.81 182.24 293.00 179.00 C 292.19 175.76 293.61 169.51 293.00 166.00
C 279.67 166.00 266.33 166.00 253.00 166.00
C 252.41 168.84 254.22 172.98 252.00 175.00
C 252.00 180.00 252.00 185.00 252.00 190.00
C 239.13 192.18 247.28 173.75 245.00 166.00
C 239.31 166.51 232.92 165.67 228.00 165.00
C 226.67 165.00 225.33 165.00 224.00 165.00
C 224.00 165.00 224.00 165.50 224.00 166.00 Z" />
    </g>
    <g fill="None" fill-opacity="0.0" stroke="#979797" stroke-opacity="1.00" stroke-width="0.3">
        <path
            d="
M 245.00 166.00 
C 245.00 165.50 245.00 165.00 245.00 165.00
C 239.33 165.00 233.67 165.00 228.00 165.00
C 232.92 165.67 239.31 166.51 245.00 166.00 Z" />
    </g>
    <g fill="None" fill-opacity="0.0" stroke="#666666" stroke-opacity="1.00" stroke-width="0.3">
        <path
            d="
M 245.00 166.00 
C 247.28 173.75 239.13 192.18 252.00 190.00
C 252.00 185.00 252.00 180.00 252.00 175.00
C 252.00 171.67 252.00 168.33 252.00 165.00
C 249.67 165.00 247.33 165.00 245.00 165.00
C 245.00 165.00 245.00 165.50 245.00 166.00 Z" />
    </g>
    <g fill="None" fill-opacity="0.0" stroke="#969696" stroke-opacity="1.00" stroke-width="0.3">
        <path
            d="
M 252.00 175.00 
C 254.22 172.98 252.41 168.84 253.00 166.00
C 266.33 166.00 279.67 166.00 293.00 166.00
C 293.61 169.51 292.19 175.76 293.00 179.00 C 293.81 182.24 291.01 189.07 294.00 191.00
C 296.29 191.21 298.70 191.00 301.00 191.00
C 301.07 190.99 301.00 190.00 301.00 190.00
C 298.67 190.05 296.33 189.96 294.00 190.00
C 293.39 181.74 295.26 172.82 293.00 165.00
C 279.33 165.00 265.67 165.00 252.00 165.00
C 252.00 168.33 252.00 171.67 252.00 175.00 Z" />
    </g>
    <g fill="None" fill-opacity="0.0" stroke="#666666" stroke-opacity="1.00" stroke-width="0.3">
        <path
            d="
M 301.00 190.00 
C 301.00 182.00 301.00 174.00 301.00 166.00
C 301.00 165.50 301.00 165.00 301.00 165.00
C 298.33 165.00 295.67 165.00 293.00 165.00
C 295.26 172.82 293.39 181.74 294.00 190.00
C 296.33 189.96 298.67 190.05 301.00 190.00 Z" />
    </g>
    <g fill="None" fill-opacity="0.0" stroke="#969696" stroke-opacity="1.00" stroke-width="0.3">
        <path
            d="
M 301.00 166.00 
C 306.70 166.52 313.08 165.48 318.00 165.00
C 312.33 165.00 306.67 165.00 301.00 165.00
C 301.00 165.00 301.00 165.50 301.00 166.00 Z" />
    </g>
    <g fill="None" fill-opacity="0.0" stroke="#C4C4C4" stroke-opacity="1.00" stroke-width="0.3">
        <path
            d="
M 301.00 166.00 
C 301.00 174.00 301.00 182.00 301.00 190.00
C 301.00 190.00 301.07 190.99 301.00 191.00
C 306.67 191.00 312.33 191.00 318.00 191.00
C 318.00 182.67 318.00 174.33 318.00 166.00
C 327.61 165.35 337.41 166.86 347.00 166.00
C 347.07 165.51 347.00 165.00 347.00 165.00
C 337.33 165.00 327.67 165.00 318.00 165.00
C 313.08 165.48 306.70 166.52 301.00 166.00 Z" />
    </g>
    <g fill="None" fill-opacity="0.0" stroke="#666666" stroke-opacity="1.00" stroke-width="0.3">
        <path
            d="
M 347.00 166.00 
C 344.49 170.44 335.91 166.83 331.00 168.00
C 331.00 176.33 331.00 184.67 331.00 193.00
C 335.92 194.51 347.54 189.33 347.00 197.00
C 341.67 197.00 336.33 197.00 331.00 197.00
C 331.00 205.00 331.00 213.00 331.00 221.00
C 354.33 221.00 377.67 221.00 401.00 221.00
C 401.00 213.00 401.00 205.00 401.00 197.00
C 395.33 197.00 389.67 197.00 384.00 197.00
C 372.00 197.00 360.00 197.00 348.00 197.00
C 348.10 189.88 358.21 193.75 364.00 193.00 C 369.79 192.25 377.99 193.57 384.00 193.00
C 389.67 193.00 395.33 193.00 401.00 193.00
C 401.00 184.67 401.00 176.33 401.00 168.00
C 395.33 168.00 389.67 168.00 384.00 168.00
C 384.00 168.00 383.50 168.00 383.00 168.00
C 371.33 168.00 359.67 168.00 348.00 168.00
C 348.04 167.00 347.95 166.00 348.00 165.00
C 348.00 165.00 347.50 165.00 347.00 165.00
C 347.00 165.00 347.07 165.51 347.00 166.00 Z" />
    </g>
    <g fill="None" fill-opacity="0.0" stroke="#666666" stroke-opacity="1.00" stroke-width="0.3">
        <path
            d="
M 462.00 197.00 
C 450.00 197.00 438.00 197.00 426.00 197.00
C 426.10 189.88 436.21 193.75 442.00 193.00 C 447.79 192.25 455.99 193.57 462.00 193.00
C 467.67 193.00 473.33 193.00 479.00 193.00
C 479.00 184.67 479.00 176.33 479.00 168.00
C 473.67 168.00 468.33 168.00 463.00 168.00
C 463.00 168.00 462.50 168.00 462.00 168.00
C 456.61 168.00 448.07 168.67 443.00 168.00 C 437.93 167.33 429.29 170.40 426.00 167.00
C 420.82 169.16 414.61 167.46 409.00 168.00
C 409.00 176.33 409.00 184.67 409.00 193.00
C 413.92 194.51 425.54 189.33 425.00 197.00
C 419.67 197.00 414.33 197.00 409.00 197.00
C 409.00 205.00 409.00 213.00 409.00 221.00
C 432.33 221.00 455.67 221.00 479.00 221.00
C 479.00 213.00 479.00 205.00 479.00 197.00
C 473.33 197.00 467.67 197.00 462.00 197.00 Z" />
    </g>
    <g fill="None" fill-opacity="0.0" stroke="#E99D90" stroke-opacity="1.00" stroke-width="0.3">
        <path
            d="
M 29.00 178.00 
C 26.89 176.48 24.10 172.36 23.00 170.00
C 22.91 169.81 21.98 167.94 22.00 168.00
C 22.53 172.32 25.16 175.65 29.00 178.00 Z" />
    </g>
    <g fill="None" fill-opacity="0.0" stroke="#CC6A16" stroke-opacity="1.00" stroke-width="0.3">
        <path
            d="
M 36.00 181.00 
C 37.00 180.06 47.51 180.55 49.00 181.00
C 55.84 183.05 62.91 195.32 68.00 200.00
C 68.79 200.72 70.34 201.27 71.00 202.00
C 69.19 198.31 64.45 194.44 61.25 191.75 C 58.05 189.06 54.45 182.90 51.00 181.00
C 46.80 180.61 39.76 178.22 36.00 181.00 Z" />
    </g>
    <g fill="None" fill-opacity="0.0" stroke="#FDFBD7" stroke-opacity="1.00" stroke-width="0.3">
        <path
            d="
M 70.00 204.00 
C 69.63 202.30 69.52 201.91 68.00 201.00
C 64.11 200.71 60.64 199.25 57.00 198.00
C 49.21 195.33 39.48 191.79 37.00 183.00
C 36.85 182.78 36.10 181.05 36.00 181.00
C 36.00 181.00 35.39 181.21 35.00 181.00
C 31.56 185.30 43.51 193.75 47.93 196.07 C 52.34 198.40 65.07 201.18 70.00 204.00 Z" />
    </g>
    <g fill="None" fill-opacity="0.0" stroke="#F9CB22" stroke-opacity="1.00" stroke-width="0.3">
        <path
            d="
M 37.00 183.00 
C 41.70 190.03 49.93 194.69 57.00 198.00
C 60.64 199.25 64.11 200.71 68.00 201.00
C 67.78 200.87 68.00 200.00 68.00 200.00
C 64.59 197.62 61.62 192.95 58.25 190.75 C 54.87 188.55 52.34 182.23 49.00 181.00
C 47.51 180.55 37.00 180.06 36.00 181.00
C 36.10 181.05 36.85 182.78 37.00 183.00 Z" />
    </g>
    <g fill="None" fill-opacity="0.0" stroke="#F0A427" stroke-opacity="1.00" stroke-width="0.3">
        <path
            d="
M 68.00 200.00 
C 62.91 195.32 55.84 183.05 49.00 181.00
C 52.34 182.23 54.87 188.55 58.25 190.75 C 61.62 192.95 64.59 197.62 68.00 200.00 Z" />
    </g>
    <g fill="None" fill-opacity="0.0" stroke="#B33023" stroke-opacity="1.00" stroke-width="0.3">
        <path
            d="
M 71.00 202.00 
C 71.20 202.40 71.00 203.00 71.00 203.00
C 79.59 206.85 83.41 217.82 96.00 214.00 C 108.59 210.18 119.56 216.87 132.00 214.00
C 132.47 215.88 130.94 218.93 133.00 220.00
C 133.00 214.67 133.00 209.33 133.00 204.00
C 122.89 201.69 114.86 191.61 116.00 181.00
C 94.48 179.49 72.48 183.02 51.00 181.00
C 54.45 182.90 58.05 189.06 61.25 191.75 C 64.45 194.44 69.19 198.31 71.00 202.00 Z" />
    </g>
    <g fill="None" fill-opacity="0.0" stroke="#F9E686" stroke-opacity="1.00" stroke-width="0.3">
        <path
            d="
M 57.00 198.00 
C 49.93 194.69 41.70 190.03 37.00 183.00
C 39.48 191.79 49.21 195.33 57.00 198.00 Z" />
    </g>
    <g fill="None" fill-opacity="0.0" stroke="#212121" stroke-opacity="1.00" stroke-width="0.3">
        <path
            d="
M 384.00 197.00 
C 384.00 195.67 384.00 194.33 384.00 193.00
C 377.99 193.57 369.79 192.25 364.00 193.00 C 358.21 193.75 348.10 189.88 348.00 197.00
C 360.00 197.00 372.00 197.00 384.00 197.00 Z" />
    </g>
    <g fill="None" fill-opacity="0.0" stroke="#202020" stroke-opacity="1.00" stroke-width="0.3">
        <path
            d="
M 462.00 197.00 
C 462.00 195.67 462.00 194.33 462.00 193.00
C 455.99 193.57 447.79 192.25 442.00 193.00 C 436.21 193.75 426.10 189.88 426.00 197.00
C 438.00 197.00 450.00 197.00 462.00 197.00 Z" />
    </g>
    <g fill="None" fill-opacity="0.0" stroke="#E2BAB3" stroke-opacity="1.00" stroke-width="0.3">
        <path
            d="
M 68.00 201.00 
C 69.52 201.91 69.63 202.30 70.00 204.00
C 70.99 208.57 67.61 218.74 71.00 222.00
C 70.96 222.00 71.00 221.00 71.00 221.00
C 71.00 215.00 71.00 209.00 71.00 203.00
C 71.00 203.00 71.20 202.40 71.00 202.00
C 70.34 201.27 68.79 200.72 68.00 200.00
C 68.00 200.00 67.78 200.87 68.00 201.00 Z" />
    </g>
    <g fill="None" fill-opacity="0.0" stroke="#832418" stroke-opacity="1.00" stroke-width="0.3">
        <path
            d="
M 71.00 221.00 
C 91.50 219.15 112.50 222.85 133.00 221.00
C 133.00 221.00 133.00 220.50 133.00 220.00
C 130.94 218.93 132.47 215.88 132.00 214.00
C 119.56 216.87 108.59 210.18 96.00 214.00 C 83.41 217.82 79.59 206.85 71.00 203.00
C 71.00 209.00 71.00 215.00 71.00 221.00 Z" />
    </g>
    <g fill="None" fill-opacity="0.0" stroke="#B63123" stroke-opacity="1.00" stroke-width="0.3">
        <path
            d="
M 148.00 221.00 
C 148.00 218.67 148.00 216.33 148.00 214.00
C 151.22 214.56 155.83 213.19 158.00 214.00
C 158.39 214.21 159.00 214.00 159.00 214.00
C 166.20 208.67 180.83 215.02 190.00 213.00 C 199.17 210.98 212.45 214.51 222.00 213.00
C 222.00 212.00 222.00 211.00 222.00 210.00
C 211.48 209.07 197.14 211.25 187.00 210.00 C 176.86 208.75 160.77 215.03 159.00 204.00
C 153.00 204.00 147.00 204.00 141.00 204.00
C 140.04 208.75 141.50 212.67 147.00 211.00
C 145.93 214.19 147.99 218.56 148.00 221.00 Z" />
    </g>
    <g fill="None" fill-opacity="0.0" stroke="#B26A63" stroke-opacity="1.00" stroke-width="0.3">
        <path
            d="
M 159.00 214.00 
C 169.32 213.07 180.80 215.24 191.00 214.00 C 201.20 212.76 212.15 216.45 222.00 214.00
C 223.46 212.96 222.90 211.69 223.00 210.00
C 223.00 210.00 222.50 210.00 222.00 210.00
C 222.00 211.00 222.00 212.00 222.00 213.00
C 212.45 214.51 199.17 210.98 190.00 213.00 C 180.83 215.02 166.20 208.67 159.00 214.00 Z" />
    </g>
    <g fill="None" fill-opacity="0.0" stroke="#812117" stroke-opacity="1.00" stroke-width="0.3">
        <path
            d="
M 148.00 221.00 
C 150.22 219.43 155.50 222.18 158.00 221.00
C 158.00 218.67 158.00 216.33 158.00 214.00
C 155.83 213.19 151.22 214.56 148.00 214.00
C 148.00 216.33 148.00 218.67 148.00 221.00 Z" />
    </g>
    <g fill="None" fill-opacity="0.0" stroke="#D99B8C" stroke-opacity="1.00" stroke-width="0.3">
        <path
            d="
M 148.00 221.00 
C 145.73 229.48 147.62 239.08 147.00 248.00
C 144.00 248.00 141.00 248.00 138.00 248.00
C 138.25 248.25 138.00 249.00 138.00 249.00
C 141.33 249.00 144.67 249.00 148.00 249.00
C 148.00 240.00 148.00 231.00 148.00 222.00
C 151.67 222.00 155.33 222.00 159.00 222.00
C 158.82 219.35 159.24 216.65 159.00 214.00
C 159.00 214.00 158.39 214.21 158.00 214.00
C 158.00 216.33 158.00 218.67 158.00 221.00
C 155.50 222.18 150.22 219.43 148.00 221.00 Z" />
    </g>
    <g fill="None" fill-opacity="0.0" stroke="#C48D86" stroke-opacity="1.00" stroke-width="0.3">
        <path
            d="
M 71.00 222.00 
C 90.96 223.80 111.94 221.99 132.00 222.00
C 132.50 222.00 133.00 222.00 133.00 222.00
C 133.00 222.00 133.00 221.50 133.00 221.00
C 112.50 222.85 91.50 219.15 71.00 221.00
C 71.00 221.00 70.96 222.00 71.00 222.00 Z" />
    </g>
    <g fill="None" fill-opacity="0.0" stroke="#F7D7C9" stroke-opacity="1.00" stroke-width="0.3">
        <path
            d="
M 138.00 249.00 
C 138.00 249.00 138.25 248.25 138.00 248.00
C 138.00 248.00 137.40 248.20 137.00 248.00
C 134.19 246.63 133.47 244.78 133.00 242.00
C 131.94 235.74 133.00 228.36 133.00 222.00
C 133.00 222.00 132.50 222.00 132.00 222.00
C 131.42 228.46 128.79 248.02 138.00 249.00 Z" />
    </g>
    <g fill="None" fill-opacity="0.0" stroke="#EE9585" stroke-opacity="1.00" stroke-width="0.3">
        <path
            d="
M 137.00 248.00 
C 135.64 246.72 133.36 243.56 133.00 242.00
C 133.47 244.78 134.19 246.63 137.00 248.00 Z" />
    </g>
    <g fill="#FEFDFD" fill-opacity="1.00" stroke="None">
        <path
            d="
M 0.00 260.00 
L 538.00 260.00
L 538.00 0.00
L 0.00 0.00
L 0.00 260.00
M 223.00 47.00 
C 225.86 47.83 223.47 58.40 224.00 62.00 C 224.53 65.60 224.00 73.43 224.00 78.00 C 224.00 82.57 224.43 90.20 224.00 95.00
C 225.00 95.00 226.00 95.00 227.00 95.00
C 230.63 87.85 226.36 77.74 228.00 70.00
C 236.07 71.19 244.97 68.07 252.00 70.00
C 252.32 70.24 253.00 70.00 253.00 70.00
C 275.12 70.00 296.29 69.33 318.00 70.00
C 318.00 78.33 318.00 86.67 318.00 95.00
C 327.67 95.00 337.33 95.00 347.00 95.00
C 346.18 88.83 335.80 93.41 331.00 92.00
C 331.00 83.67 331.00 75.33 331.00 67.00
C 336.33 67.00 341.67 67.00 347.00 67.00
C 347.00 66.00 347.00 65.00 347.00 64.00
C 341.31 65.10 328.24 64.88 330.00 58.00 C 331.77 51.12 326.31 39.89 333.03 38.03 C 339.75 36.17 349.42 38.36 356.00 38.00 C 362.58 37.64 373.27 37.14 379.00 38.00 C 384.73 38.86 398.10 34.86 401.00 39.00
C 402.32 40.89 401.00 48.59 401.00 51.00 C 401.00 53.41 402.32 61.11 401.00 63.00
C 398.49 66.59 388.74 62.39 385.00 64.00
C 385.00 65.00 385.00 66.00 385.00 67.00
C 390.33 67.00 395.67 67.00 401.00 67.00
C 401.00 75.33 401.00 83.67 401.00 92.00
C 395.33 92.00 389.67 92.00 384.00 92.00
C 384.32 92.84 383.60 94.20 384.00 95.00
C 397.67 95.00 411.33 95.00 425.00 95.00
C 424.18 88.83 413.80 93.41 409.00 92.00
C 409.00 83.67 409.00 75.33 409.00 67.00
C 414.16 66.35 420.66 68.31 425.00 66.00
C 423.53 60.48 411.86 67.09 409.00 63.00
C 407.68 61.11 409.00 53.41 409.00 51.00 C 409.00 48.59 407.68 40.89 409.00 39.00
C 411.41 35.56 421.55 38.74 426.00 38.00 C 430.45 37.26 439.15 38.00 444.00 38.00 C 448.85 38.00 457.53 37.27 462.00 38.00 C 466.47 38.73 476.60 35.57 479.00 39.00
C 480.32 40.89 479.00 48.59 479.00 51.00 C 479.00 53.41 480.32 61.11 479.00 63.00
C 476.49 66.59 466.74 62.39 463.00 64.00
C 463.00 65.00 463.00 66.00 463.00 67.00
C 468.33 67.00 473.67 67.00 479.00 67.00
C 479.00 75.33 479.00 83.67 479.00 92.00
C 473.33 92.00 467.67 92.00 462.00 92.00
C 462.00 93.00 462.00 94.00 462.00 95.00
C 472.00 95.00 482.00 95.00 492.00 95.00
C 492.03 83.57 494.06 70.18 493.00 58.00
C 499.67 58.00 506.33 58.00 513.00 58.00
C 513.00 106.00 513.00 154.00 513.00 202.00
C 506.33 202.00 499.67 202.00 493.00 202.00
C 493.00 190.00 493.00 178.00 493.00 166.00
C 483.48 167.30 470.10 163.38 463.00 168.00
C 468.33 168.00 473.67 168.00 479.00 168.00
C 479.00 176.33 479.00 184.67 479.00 193.00
C 473.33 193.00 467.67 193.00 462.00 193.00
C 462.00 194.33 462.00 195.67 462.00 197.00
C 467.67 197.00 473.33 197.00 479.00 197.00
C 479.00 205.00 479.00 213.00 479.00 221.00
C 455.67 221.00 432.33 221.00 409.00 221.00
C 409.00 213.00 409.00 205.00 409.00 197.00
C 414.33 197.00 419.67 197.00 425.00 197.00
C 425.54 189.33 413.92 194.51 409.00 193.00
C 409.00 184.67 409.00 176.33 409.00 168.00
C 414.61 167.46 420.82 169.16 426.00 167.00
C 425.75 166.74 426.00 166.00 426.00 166.00
C 421.11 162.05 412.21 166.24 406.00 165.00 C 399.79 163.76 390.49 165.93 384.00 165.00
C 384.00 166.00 384.00 167.00 384.00 168.00
C 389.67 168.00 395.33 168.00 401.00 168.00
C 401.00 176.33 401.00 184.67 401.00 193.00
C 395.33 193.00 389.67 193.00 384.00 193.00
C 384.00 194.33 384.00 195.67 384.00 197.00
C 389.67 197.00 395.33 197.00 401.00 197.00
C 401.00 205.00 401.00 213.00 401.00 221.00
C 377.67 221.00 354.33 221.00 331.00 221.00
C 331.00 213.00 331.00 205.00 331.00 197.00
C 336.33 197.00 341.67 197.00 347.00 197.00
C 347.54 189.33 335.92 194.51 331.00 193.00
C 331.00 184.67 331.00 176.33 331.00 168.00
C 335.91 166.83 344.49 170.44 347.00 166.00
C 337.41 166.86 327.61 165.35 318.00 166.00
C 318.00 174.33 318.00 182.67 318.00 191.00
C 312.33 191.00 306.67 191.00 301.00 191.00
C 298.70 191.00 296.29 191.21 294.00 191.00
C 272.00 188.98 249.96 191.16 228.00 190.00
C 228.00 182.00 228.00 174.00 228.00 166.00
C 226.67 166.00 225.33 166.00 224.00 166.00
C 224.00 172.97 224.51 185.60 224.00 192.00 C 223.49 198.40 226.30 212.93 222.00 214.00
C 212.15 216.45 201.20 212.76 191.00 214.00 C 180.80 215.24 169.32 213.07 159.00 214.00
C 159.24 216.65 158.82 219.35 159.00 222.00
C 155.33 222.00 151.67 222.00 148.00 222.00
C 148.00 231.00 148.00 240.00 148.00 249.00
C 144.67 249.00 141.33 249.00 138.00 249.00
C 128.79 248.02 131.42 228.46 132.00 222.00
C 111.94 221.99 90.96 223.80 71.00 222.00
C 67.61 218.74 70.99 208.57 70.00 204.00
C 65.07 201.18 52.34 198.40 47.93 196.07 C 43.51 193.75 31.56 185.30 35.00 181.00
C 33.27 180.09 30.88 179.15 29.00 178.00
C 25.16 175.65 22.53 172.32 22.00 168.00
C 18.36 153.87 23.63 133.22 22.00 119.00 C 20.37 104.78 19.01 87.04 33.00 81.00
C 33.41 80.82 34.73 80.25 35.00 80.00
C 35.26 79.76 35.65 79.05 36.00 79.00
C 40.62 67.92 50.72 63.07 62.00 60.00
C 65.22 58.62 65.86 58.85 69.00 59.00
C 69.15 58.86 70.81 57.79 71.00 58.00
C 71.00 54.18 68.91 41.99 71.00 39.00
C 73.80 35.00 84.62 39.04 90.00 38.00 C 95.38 36.96 104.85 38.39 111.00 38.00 C 117.15 37.61 125.63 38.00 132.00 38.00
C 131.43 31.70 128.93 11.97 138.00 11.00
C 154.79 9.48 145.72 26.76 148.00 38.00
C 154.16 37.03 161.57 37.77 159.00 46.00
C 180.17 46.67 202.65 44.67 223.00 47.00 Z" />
    </g>
    <g fill="#F6D0C3" fill-opacity="1.00" stroke="None">
        <path
            d="
M 132.00 38.00 
C 132.50 38.00 133.00 38.00 133.00 38.00
C 133.00 29.18 130.11 17.51 138.00 12.00
C 138.23 11.84 138.00 11.00 138.00 11.00
C 128.93 11.97 131.43 31.70 132.00 38.00 Z" />
    </g>
    <g fill="#D9938B" fill-opacity="1.00" stroke="None">
        <path
            d="
M 138.00 12.00 
C 140.98 12.27 144.02 11.80 147.00 12.00
C 147.62 20.92 145.73 30.52 148.00 39.00
C 150.22 40.57 155.50 37.82 158.00 39.00
C 158.00 41.33 158.00 43.67 158.00 46.00
C 164.64 46.70 172.06 46.87 179.00 47.00 C 185.94 47.13 194.31 45.95 201.00 47.00 C 207.69 48.05 216.99 44.33 223.00 47.00
C 202.65 44.67 180.17 46.67 159.00 46.00
C 161.57 37.77 154.16 37.03 148.00 38.00
C 145.72 26.76 154.79 9.48 138.00 11.00
C 138.00 11.00 138.23 11.84 138.00 12.00 Z" />
    </g>
    <g fill="#E53E25" fill-opacity="1.00" stroke="None">
        <path
            d="
M 133.00 38.00 
C 133.00 38.50 133.00 39.00 133.00 39.00
C 133.00 39.50 133.00 40.00 133.00 40.00
C 133.00 45.33 133.00 50.67 133.00 56.00
C 122.48 58.25 114.90 69.05 117.00 80.00
C 94.67 80.00 72.33 80.00 50.00 80.00
C 45.35 80.00 39.53 79.04 35.00 80.00
C 34.73 80.25 33.41 80.82 33.00 81.00
C 21.98 90.87 20.75 105.48 23.00 121.00 C 25.25 136.52 19.34 156.09 23.00 170.00
C 24.10 172.36 26.89 176.48 29.00 178.00
C 30.88 179.15 33.27 180.09 35.00 181.00
C 35.39 181.21 36.00 181.00 36.00 181.00
C 39.76 178.22 46.80 180.61 51.00 181.00
C 72.48 183.02 94.48 179.49 116.00 181.00
C 114.86 191.61 122.89 201.69 133.00 204.00
C 133.00 209.33 133.00 214.67 133.00 220.00
C 133.00 220.50 133.00 221.00 133.00 221.00
C 133.00 221.50 133.00 222.00 133.00 222.00
C 133.00 228.36 131.94 235.74 133.00 242.00
C 133.36 243.56 135.64 246.72 137.00 248.00
C 137.40 248.20 138.00 248.00 138.00 248.00
C 141.00 248.00 144.00 248.00 147.00 248.00
C 147.62 239.08 145.73 229.48 148.00 221.00
C 147.99 218.56 145.93 214.19 147.00 211.00
C 141.50 212.67 140.04 208.75 141.00 204.00
C 147.00 204.00 153.00 204.00 159.00 204.00
C 160.77 215.03 176.86 208.75 187.00 210.00 C 197.14 211.25 211.48 209.07 222.00 210.00
C 222.50 210.00 223.00 210.00 223.00 210.00
C 223.86 195.11 223.00 179.91 223.00 165.00
C 223.00 142.00 222.99 119.00 223.00 96.00
C 223.00 95.50 223.00 95.00 223.00 95.00
C 223.00 79.67 223.00 64.33 223.00 49.00
C 221.90 52.58 209.22 49.07 204.00 50.00 C 198.78 50.93 188.39 49.53 182.00 50.00 C 175.61 50.47 165.71 49.65 159.00 50.00
C 158.44 58.81 147.14 53.62 141.00 55.00
C 138.62 48.83 144.69 51.29 147.22 49.22 C 149.76 47.15 144.34 41.02 148.00 39.00
C 145.73 30.52 147.62 20.92 147.00 12.00
C 144.02 11.80 140.98 12.27 138.00 12.00
C 130.11 17.51 133.00 29.18 133.00 38.00
M 159.00 62.00 
C 159.00 107.33 159.00 152.67 159.00 198.00
C 146.11 198.55 122.72 201.18 122.02 182.98 C 121.33 164.77 122.17 148.10 122.00 130.00 C 121.83 111.90 121.77 96.40 122.00 78.00 C 122.23 59.60 145.45 60.79 159.00 62.00 Z" />
    </g>
    <g fill="#BD8C84" fill-opacity="1.00" stroke="None">
        <path
            d="
M 71.00 39.00 
C 91.54 37.61 112.50 40.85 133.00 39.00
C 133.00 39.00 133.00 38.50 133.00 38.00
C 133.00 38.00 132.50 38.00 132.00 38.00
C 125.63 38.00 117.15 37.61 111.00 38.00 C 104.85 38.39 95.38 36.96 90.00 38.00 C 84.62 39.04 73.80 35.00 71.00 39.00 Z" />
    </g>
    <g fill="#B0B0B0" fill-opacity="1.00" stroke="None">
        <path
            d="
M 347.00 64.00 
C 345.27 60.44 334.15 64.59 331.00 63.00
C 331.00 55.00 331.00 47.00 331.00 39.00
C 354.33 39.00 377.67 39.00 401.00 39.00
C 398.10 34.86 384.73 38.86 379.00 38.00 C 373.27 37.14 362.58 37.64 356.00 38.00 C 349.42 38.36 339.75 36.17 333.03 38.03 C 326.31 39.89 331.77 51.12 330.00 58.00 C 328.24 64.88 341.31 65.10 347.00 64.00 Z" />
    </g>
    <g fill="#ADADAD" fill-opacity="1.00" stroke="None">
        <path
            d="
M 409.00 39.00 
C 432.33 39.00 455.67 39.00 479.00 39.00
C 476.60 35.57 466.47 38.73 462.00 38.00 C 457.53 37.27 448.85 38.00 444.00 38.00 C 439.15 38.00 430.45 37.26 426.00 38.00 C 421.55 38.74 411.41 35.56 409.00 39.00 Z" />
    </g>
    <g fill="#842419" fill-opacity="1.00" stroke="None">
        <path
            d="
M 71.00 58.00 
C 71.00 58.50 71.00 59.00 71.00 59.00
C 75.96 56.65 75.73 48.12 82.70 46.70 C 89.66 45.28 99.26 46.22 107.00 46.00 C 114.74 45.78 124.11 46.16 132.00 46.00
C 132.47 44.12 130.94 41.07 133.00 40.00
C 133.00 40.00 133.00 39.50 133.00 39.00
C 112.50 40.85 91.54 37.61 71.00 39.00
C 68.91 41.99 71.00 54.18 71.00 58.00 Z" />
    </g>
    <g fill="#B13124" fill-opacity="1.00" stroke="None">
        <path
            d="
M 223.00 49.00 
C 223.00 48.50 223.19 47.08 223.00 47.00
C 216.99 44.33 207.69 48.05 201.00 47.00 C 194.31 45.95 185.94 47.13 179.00 47.00 C 172.06 46.87 164.64 46.70 158.00 46.00
C 155.87 45.78 151.10 46.24 148.00 46.00
C 148.00 43.67 148.00 41.33 148.00 39.00
C 144.34 41.02 149.76 47.15 147.22 49.22 C 144.69 51.29 138.62 48.83 141.00 55.00
C 147.14 53.62 158.44 58.81 159.00 50.00
C 165.71 49.65 175.61 50.47 182.00 50.00 C 188.39 49.53 198.78 50.93 204.00 50.00 C 209.22 49.07 221.90 52.58 223.00 49.00 Z" />
    </g>
    <g fill="#812117" fill-opacity="1.00" stroke="None">
        <path
            d="
M 158.00 46.00 
C 158.00 43.67 158.00 41.33 158.00 39.00
C 155.50 37.82 150.22 40.57 148.00 39.00
C 148.00 41.33 148.00 43.67 148.00 46.00
C 151.10 46.24 155.87 45.78 158.00 46.00 Z" />
    </g>
    <g fill="#666666" fill-opacity="1.00" stroke="None">
        <path
            d="
M 347.00 64.00 
C 347.00 65.00 347.00 66.00 347.00 67.00
C 341.67 67.00 336.33 67.00 331.00 67.00
C 331.00 75.33 331.00 83.67 331.00 92.00
C 335.80 93.41 346.18 88.83 347.00 95.00
C 337.33 95.00 327.67 95.00 318.00 95.00
C 312.33 95.00 306.67 95.00 301.00 95.00
C 301.00 86.67 301.00 78.33 301.00 70.00
C 298.67 70.00 296.33 70.00 294.00 70.00
C 294.00 78.33 294.00 86.67 294.00 95.00
C 311.72 95.35 330.31 96.86 348.00 95.00
C 348.82 93.83 347.40 92.97 349.00 92.00
C 353.05 89.55 361.02 92.84 366.00 92.00 C 370.98 91.16 378.77 92.00 384.00 92.00
C 389.67 92.00 395.33 92.00 401.00 92.00
C 401.00 83.67 401.00 75.33 401.00 67.00
C 395.67 67.00 390.33 67.00 385.00 67.00
C 384.50 67.00 384.00 67.00 384.00 67.00
C 372.00 67.00 360.00 67.00 348.00 67.00
C 349.55 61.39 358.20 64.65 364.00 64.00 C 369.80 63.35 377.98 64.49 384.00 64.00
C 388.93 63.52 395.36 62.28 401.00 63.00
C 402.32 61.11 401.00 53.41 401.00 51.00 C 401.00 48.59 402.32 40.89 401.00 39.00
C 377.67 39.00 354.33 39.00 331.00 39.00
C 331.00 47.00 331.00 55.00 331.00 63.00
C 334.15 64.59 345.27 60.44 347.00 64.00 Z" />
    </g>
    <g fill="#656565" fill-opacity="1.00" stroke="None">
        <path
            d="
M 409.00 63.00 
C 414.73 62.29 420.66 63.50 426.00 64.00
C 437.30 65.06 450.70 65.06 462.00 64.00
C 467.34 63.50 473.29 62.30 479.00 63.00
C 480.32 61.11 479.00 53.41 479.00 51.00 C 479.00 48.59 480.32 40.89 479.00 39.00
C 455.67 39.00 432.33 39.00 409.00 39.00
C 407.68 40.89 409.00 48.59 409.00 51.00 C 409.00 53.41 407.68 61.11 409.00 63.00 Z" />
    </g>
    <g fill="#B33023" fill-opacity="1.00" stroke="None">
        <path
            d="
M 71.00 59.00 
C 67.23 61.64 63.99 66.82 60.25 69.25 C 56.50 71.68 53.74 78.62 50.00 80.00
C 72.33 80.00 94.67 80.00 117.00 80.00
C 114.90 69.05 122.48 58.25 133.00 56.00
C 133.00 50.67 133.00 45.33 133.00 40.00
C 130.94 41.07 132.47 44.12 132.00 46.00
C 124.11 46.16 114.74 45.78 107.00 46.00 C 99.26 46.22 89.66 45.28 82.70 46.70 C 75.73 48.12 75.96 56.65 71.00 59.00 Z" />
    </g>
    <g fill="#FEE1D8" fill-opacity="1.00" stroke="None">
        <path
            d="
M 223.00 49.00 
C 223.00 64.33 223.00 79.67 223.00 95.00
C 223.25 94.75 224.00 95.00 224.00 95.00
C 224.43 90.20 224.00 82.57 224.00 78.00 C 224.00 73.43 224.53 65.60 224.00 62.00 C 223.47 58.40 225.86 47.83 223.00 47.00
C 223.19 47.08 223.00 48.50 223.00 49.00 Z" />
    </g>
    <g fill="#FBFAD6" fill-opacity="1.00" stroke="None">
        <path
            d="
M 62.00 60.00 
C 63.92 59.48 65.96 59.20 68.00 59.00
C 68.49 58.95 69.00 59.00 69.00 59.00
C 65.86 58.85 65.22 58.62 62.00 60.00 Z" />
    </g>
    <g fill="#DC7A28" fill-opacity="1.00" stroke="None">
        <path
            d="
M 69.00 59.00 
C 63.66 63.99 56.08 76.88 49.00 79.00
C 45.09 80.17 40.05 78.42 36.00 79.00
C 35.65 79.05 35.26 79.76 35.00 80.00
C 39.53 79.04 45.35 80.00 50.00 80.00
C 53.74 78.62 56.50 71.68 60.25 69.25 C 63.99 66.82 67.23 61.64 71.00 59.00
C 71.00 59.00 71.00 58.50 71.00 58.00
C 70.81 57.79 69.15 58.86 69.00 59.00 Z" />
    </g>
    <g fill="#CBCBCB" fill-opacity="1.00" stroke="None">
        <path
            d="
M 492.00 95.00 
C 491.93 117.82 494.13 141.76 493.00 165.00
C 482.67 165.00 472.33 165.00 462.00 165.00
C 462.21 165.55 461.59 167.61 462.00 168.00
C 462.50 168.00 463.00 168.00 463.00 168.00
C 470.10 163.38 483.48 167.30 493.00 166.00
C 493.00 178.00 493.00 190.00 493.00 202.00
C 499.67 202.00 506.33 202.00 513.00 202.00
C 513.00 154.00 513.00 106.00 513.00 58.00
C 506.33 58.00 499.67 58.00 493.00 58.00
C 494.06 70.18 492.03 83.57 492.00 95.00 Z" />
    </g>
    <g fill="#F9CF39" fill-opacity="1.00" stroke="None">
        <path
            d="
M 62.00 60.00 
C 50.72 63.07 40.62 67.92 36.00 79.00
C 40.05 78.42 45.09 80.17 49.00 79.00
C 52.32 77.77 55.05 71.57 58.25 69.25 C 61.45 66.93 65.75 62.22 68.00 59.00
C 65.96 59.20 63.92 59.48 62.00 60.00 Z" />
    </g>
    <g fill="#F6AF30" fill-opacity="1.00" stroke="None">
        <path
            d="
M 49.00 79.00 
C 56.08 76.88 63.66 63.99 69.00 59.00
C 69.00 59.00 68.49 58.95 68.00 59.00
C 65.75 62.22 61.45 66.93 58.25 69.25 C 55.05 71.57 52.32 77.77 49.00 79.00 Z" />
    </g>
    <g fill="#803A2E" fill-opacity="1.00" stroke="None">
        <path
            d="
M 159.00 62.00 
C 145.45 60.79 122.23 59.60 122.00 78.00 C 121.77 96.40 121.83 111.90 122.00 130.00 C 122.17 148.10 121.33 164.77 122.02 182.98 C 122.72 201.18 146.11 198.55 159.00 198.00
C 159.00 152.67 159.00 107.33 159.00 62.00
M 158.00 116.00 
C 158.00 127.67 158.00 139.33 158.00 151.00
C 158.00 156.00 158.00 161.00 158.00 166.00
C 158.00 171.00 158.00 176.00 158.00 181.00
C 158.00 186.33 158.00 191.67 158.00 197.00
C 145.67 197.09 124.53 200.29 124.00 183.00
C 120.93 166.82 122.71 147.10 123.00 130.00 C 123.29 112.90 120.26 92.07 124.00 76.00
C 125.01 71.66 130.08 62.12 136.03 63.03 C 141.97 63.93 156.28 59.12 157.97 66.03 C 159.66 72.94 157.38 83.41 158.00 91.00 C 158.62 98.59 158.00 108.22 158.00 116.00 Z" />
    </g>
    <g fill="#323231" fill-opacity="1.00" stroke="None">
        <path
            d="
M 124.00 76.00 
C 123.53 80.21 124.00 84.76 124.00 89.00
C 126.42 94.30 138.24 96.08 141.08 101.92 C 143.93 107.76 155.80 110.05 158.00 116.00
C 158.00 108.22 158.62 98.59 158.00 91.00 C 157.38 83.41 159.66 72.94 157.97 66.03 C 156.28 59.12 141.97 63.93 136.03 63.03 C 130.08 62.12 125.01 71.66 124.00 76.00 Z" />
    </g>
    <g fill="#A7A7A7" fill-opacity="1.00" stroke="None">
        <path
            d="
M 384.00 64.00 
C 383.90 64.20 383.86 66.87 384.00 67.00
C 384.00 67.00 384.50 67.00 385.00 67.00
C 385.00 66.00 385.00 65.00 385.00 64.00
C 388.74 62.39 398.49 66.59 401.00 63.00
C 395.36 62.28 388.93 63.52 384.00 64.00 Z" />
    </g>
    <g fill="#A1A1A1" fill-opacity="1.00" stroke="None">
        <path
            d="
M 425.00 66.00 
C 425.32 65.76 426.00 66.00 426.00 66.00
C 426.23 65.84 426.24 64.31 426.00 64.00
C 420.66 63.50 414.73 62.29 409.00 63.00
C 411.86 67.09 423.53 60.48 425.00 66.00 Z" />
    </g>
    <g fill="#A3A3A3" fill-opacity="1.00" stroke="None">
        <path
            d="
M 462.00 64.00 
C 461.90 64.19 461.87 66.88 462.00 67.00
C 462.50 67.00 463.00 67.00 463.00 67.00
C 463.00 66.00 463.00 65.00 463.00 64.00
C 466.74 62.39 476.49 66.59 479.00 63.00
C 473.29 62.30 467.34 63.50 462.00 64.00 Z" />
    </g>
    <g fill="#1C1C1C" fill-opacity="1.00" stroke="None">
        <path
            d="
M 384.00 67.00 
C 383.86 66.87 383.90 64.20 384.00 64.00
C 377.98 64.49 369.80 63.35 364.00 64.00 C 358.20 64.65 349.55 61.39 348.00 67.00
C 360.00 67.00 372.00 67.00 384.00 67.00 Z" />
    </g>
    <g fill="#1B1B1B" fill-opacity="1.00" stroke="None">
        <path
            d="
M 426.00 66.00 
C 430.11 69.05 437.52 66.45 443.00 67.00 C 448.48 67.55 456.31 67.00 462.00 67.00
C 461.87 66.88 461.90 64.19 462.00 64.00
C 450.70 65.06 437.30 65.06 426.00 64.00
C 426.24 64.31 426.23 65.84 426.00 66.00 Z" />
    </g>
    <g fill="#676767" fill-opacity="1.00" stroke="None">
        <path
            d="
M 384.00 95.00 
C 385.97 99.00 399.30 94.67 404.00 96.00 C 408.70 97.33 419.72 95.01 425.00 96.00
C 426.81 89.24 434.77 92.56 441.00 92.00 C 447.23 91.44 455.58 92.42 462.00 92.00
C 467.67 92.00 473.33 92.00 479.00 92.00
C 479.00 83.67 479.00 75.33 479.00 67.00
C 473.67 67.00 468.33 67.00 463.00 67.00
C 463.00 67.00 462.50 67.00 462.00 67.00
C 456.31 67.00 448.48 67.55 443.00 67.00 C 437.52 66.45 430.11 69.05 426.00 66.00
C 426.00 66.00 425.32 65.76 425.00 66.00
C 420.66 68.31 414.16 66.35 409.00 67.00
C 409.00 75.33 409.00 83.67 409.00 92.00
C 413.80 93.41 424.18 88.83 425.00 95.00
C 411.33 95.00 397.67 95.00 384.00 95.00 Z" />
    </g>
    <g fill="#C0C0C0" fill-opacity="1.00" stroke="None">
        <path
            d="
M 227.00 95.00 
C 227.50 95.00 228.00 95.00 228.00 95.00
C 233.67 95.00 239.33 95.00 245.00 95.00
C 245.00 86.67 245.00 78.33 245.00 70.00
C 247.33 70.00 249.67 70.00 252.00 70.00
C 244.97 68.07 236.07 71.19 228.00 70.00
C 226.36 77.74 230.63 87.85 227.00 95.00 Z" />
    </g>
    <g fill="#C2C2C2" fill-opacity="1.00" stroke="None">
        <path
            d="
M 253.00 70.00 
C 253.72 77.94 252.46 86.05 253.00 94.00
C 266.33 94.00 279.67 94.00 293.00 94.00
C 293.66 86.17 291.67 77.01 294.00 70.00
C 296.33 70.00 298.67 70.00 301.00 70.00
C 301.00 78.33 301.00 86.67 301.00 95.00
C 306.67 95.00 312.33 95.00 318.00 95.00
C 318.00 86.67 318.00 78.33 318.00 70.00
C 296.29 69.33 275.12 70.00 253.00 70.00 Z" />
    </g>
    <g fill="#676767" fill-opacity="1.00" stroke="None">
        <path
            d="
M 245.00 95.00 
C 247.33 95.00 249.67 95.00 252.00 95.00
C 252.56 86.72 251.25 78.27 252.00 70.00
C 249.67 70.00 247.33 70.00 245.00 70.00
C 245.00 78.33 245.00 86.67 245.00 95.00 Z" />
    </g>
    <g fill="#9C9C9C" fill-opacity="1.00" stroke="None">
        <path
            d="
M 252.00 95.00 
C 265.99 95.00 280.01 94.72 294.00 95.00
C 294.00 86.67 294.00 78.33 294.00 70.00
C 291.67 77.01 293.66 86.17 293.00 94.00
C 279.67 94.00 266.33 94.00 253.00 94.00
C 252.46 86.05 253.72 77.94 253.00 70.00
C 253.00 70.00 252.32 70.24 252.00 70.00
C 251.25 78.27 252.56 86.72 252.00 95.00 Z" />
    </g>
    <g fill="#4D3631" fill-opacity="1.00" stroke="None">
        <path
            d="
M 124.00 183.00 
C 123.27 173.46 124.00 163.57 124.00 154.00
C 124.00 149.00 124.00 144.00 124.00 139.00
C 124.00 134.00 124.00 129.00 124.00 124.00
C 124.00 112.33 124.00 100.67 124.00 89.00
C 124.00 84.76 123.53 80.21 124.00 76.00
C 120.26 92.07 123.29 112.90 123.00 130.00 C 122.71 147.10 120.93 166.82 124.00 183.00 Z" />
    </g>
    <g fill="#BB3D2C" fill-opacity="1.00" stroke="None">
        <path
            d="
M 22.00 168.00 
C 21.98 167.94 22.91 169.81 23.00 170.00
C 19.34 156.09 25.25 136.52 23.00 121.00 C 20.75 105.48 21.98 90.87 33.00 81.00
C 19.01 87.04 20.37 104.78 22.00 119.00 C 23.63 133.22 18.36 153.87 22.00 168.00 Z" />
    </g>
    <g fill="#4D4C4C" fill-opacity="1.00" stroke="None">
        <path
            d="
M 124.00 124.00 
C 126.16 129.86 136.29 132.63 140.25 137.75 C 144.21 142.87 153.50 147.59 158.00 151.00
C 158.00 139.33 158.00 127.67 158.00 116.00
C 155.80 110.05 143.93 107.76 141.08 101.92 C 138.24 96.08 126.42 94.30 124.00 89.00
C 124.00 100.67 124.00 112.33 124.00 124.00 Z" />
    </g>
    <g fill="#181818" fill-opacity="1.00" stroke="None">
        <path
            d="
M 348.00 95.00 
C 358.29 93.92 372.57 96.65 383.00 94.00
C 372.74 91.02 359.19 94.99 349.00 92.00
C 347.40 92.97 348.82 93.83 348.00 95.00 Z" />
    </g>
    <g fill="#333332" fill-opacity="1.00" stroke="None">
        <path
            d="
M 348.00 95.00 
C 330.31 96.86 311.72 95.35 294.00 95.00
C 280.01 94.72 265.99 95.00 252.00 95.00
C 249.67 95.00 247.33 95.00 245.00 95.00
C 239.33 95.00 233.67 95.00 228.00 95.00
C 226.76 95.17 224.96 96.63 223.00 96.00
C 222.99 119.00 223.00 142.00 223.00 165.00
C 223.00 164.96 224.00 165.00 224.00 165.00
C 225.33 165.00 226.67 165.00 228.00 165.00
C 233.67 165.00 239.33 165.00 245.00 165.00
C 247.33 165.00 249.67 165.00 252.00 165.00
C 265.67 165.00 279.33 165.00 293.00 165.00
C 295.67 165.00 298.33 165.00 301.00 165.00
C 306.67 165.00 312.33 165.00 318.00 165.00
C 327.67 165.00 337.33 165.00 347.00 165.00
C 347.50 165.00 348.00 165.00 348.00 165.00
C 356.26 160.69 373.95 168.29 383.00 165.00
C 383.00 166.00 383.00 167.00 383.00 168.00
C 383.50 168.00 384.00 168.00 384.00 168.00
C 384.00 167.00 384.00 166.00 384.00 165.00
C 390.49 165.93 399.79 163.76 406.00 165.00 C 412.21 166.24 421.11 162.05 426.00 166.00
C 429.28 162.60 439.08 165.69 444.00 165.00 C 448.92 164.31 457.94 164.96 462.00 165.00
C 472.33 165.00 482.67 165.00 493.00 165.00
C 494.13 141.76 491.93 117.82 492.00 95.00
C 482.00 95.00 472.00 95.00 462.00 95.00
C 462.00 94.00 462.00 93.00 462.00 92.00
C 455.58 92.42 447.23 91.44 441.00 92.00 C 434.77 92.56 426.81 89.24 425.00 96.00
C 419.72 95.01 408.70 97.33 404.00 96.00 C 399.30 94.67 385.97 99.00 384.00 95.00
C 383.60 94.20 384.32 92.84 384.00 92.00
C 378.77 92.00 370.98 91.16 366.00 92.00 C 361.02 92.84 353.05 89.55 349.00 92.00
C 359.19 94.99 372.74 91.02 383.00 94.00
C 372.57 96.65 358.29 93.92 348.00 95.00 Z" />
    </g>
    <g fill="#6C6260" fill-opacity="1.00" stroke="None">
        <path
            d="
M 223.00 96.00 
C 224.96 96.63 226.76 95.17 228.00 95.00
C 228.00 95.00 227.50 95.00 227.00 95.00
C 226.00 95.00 225.00 95.00 224.00 95.00
C 224.00 95.00 223.25 94.75 223.00 95.00
C 223.00 95.00 223.00 95.50 223.00 96.00 Z" />
    </g>
    <g fill="#323232" fill-opacity="1.00" stroke="None">
        <path
            d="
M 124.00 139.00 
C 129.31 141.96 137.23 146.92 141.25 151.75 C 145.26 156.59 155.84 160.14 158.00 166.00
C 158.00 161.00 158.00 156.00 158.00 151.00
C 153.50 147.59 144.21 142.87 140.25 137.75 C 136.29 132.63 126.16 129.86 124.00 124.00
C 124.00 129.00 124.00 134.00 124.00 139.00 Z" />
    </g>
    <g fill="#4C4C4B" fill-opacity="1.00" stroke="None">
        <path
            d="
M 124.00 154.00 
C 126.47 159.65 137.91 161.16 140.75 167.25 C 143.59 173.33 155.73 174.84 158.00 181.00
C 158.00 176.00 158.00 171.00 158.00 166.00
C 155.84 160.14 145.26 156.59 141.25 151.75 C 137.23 146.92 129.31 141.96 124.00 139.00
C 124.00 144.00 124.00 149.00 124.00 154.00 Z" />
    </g>
    <g fill="#333232" fill-opacity="1.00" stroke="None">
        <path
            d="
M 124.00 183.00 
C 124.53 200.29 145.67 197.09 158.00 197.00
C 158.00 191.67 158.00 186.33 158.00 181.00
C 155.73 174.84 143.59 173.33 140.75 167.25 C 137.91 161.16 126.47 159.65 124.00 154.00
C 124.00 163.57 123.27 173.46 124.00 183.00 Z" />
    </g>
    <g fill="#191919" fill-opacity="1.00" stroke="None">
        <path
            d="
M 348.00 165.00 
C 347.95 166.00 348.04 167.00 348.00 168.00
C 359.67 168.00 371.33 168.00 383.00 168.00
C 383.00 167.00 383.00 166.00 383.00 165.00
C 373.95 168.29 356.26 160.69 348.00 165.00 Z" />
    </g>
    <g fill="#181818" fill-opacity="1.00" stroke="None">
        <path
            d="
M 426.00 166.00 
C 426.00 166.00 425.75 166.74 426.00 167.00
C 429.29 170.40 437.93 167.33 443.00 168.00 C 448.07 168.67 456.61 168.00 462.00 168.00
C 461.59 167.61 462.21 165.55 462.00 165.00
C 457.94 164.96 448.92 164.31 444.00 165.00 C 439.08 165.69 429.28 162.60 426.00 166.00 Z" />
    </g>
    <g fill="#FDE1D9" fill-opacity="1.00" stroke="None">
        <path
            d="
M 223.00 210.00 
C 222.90 211.69 223.46 212.96 222.00 214.00
C 226.30 212.93 223.49 198.40 224.00 192.00 C 224.51 185.60 224.00 172.97 224.00 166.00
C 224.00 165.50 224.00 165.00 224.00 165.00
C 224.00 165.00 223.00 164.96 223.00 165.00
C 223.00 179.91 223.86 195.11 223.00 210.00 Z" />
    </g>
    <g fill="#C1C1C1" fill-opacity="1.00" stroke="None">
        <path
            d="
M 224.00 166.00 
C 225.33 166.00 226.67 166.00 228.00 166.00
C 228.00 174.00 228.00 182.00 228.00 190.00
C 249.96 191.16 272.00 188.98 294.00 191.00
C 291.01 189.07 293.81 182.24 293.00 179.00 C 292.19 175.76 293.61 169.51 293.00 166.00
C 279.67 166.00 266.33 166.00 253.00 166.00
C 252.41 168.84 254.22 172.98 252.00 175.00
C 252.00 180.00 252.00 185.00 252.00 190.00
C 239.13 192.18 247.28 173.75 245.00 166.00
C 239.31 166.51 232.92 165.67 228.00 165.00
C 226.67 165.00 225.33 165.00 224.00 165.00
C 224.00 165.00 224.00 165.50 224.00 166.00 Z" />
    </g>
    <g fill="#979797" fill-opacity="1.00" stroke="None">
        <path
            d="
M 245.00 166.00 
C 245.00 165.50 245.00 165.00 245.00 165.00
C 239.33 165.00 233.67 165.00 228.00 165.00
C 232.92 165.67 239.31 166.51 245.00 166.00 Z" />
    </g>
    <g fill="#666666" fill-opacity="1.00" stroke="None">
        <path
            d="
M 245.00 166.00 
C 247.28 173.75 239.13 192.18 252.00 190.00
C 252.00 185.00 252.00 180.00 252.00 175.00
C 252.00 171.67 252.00 168.33 252.00 165.00
C 249.67 165.00 247.33 165.00 245.00 165.00
C 245.00 165.00 245.00 165.50 245.00 166.00 Z" />
    </g>
    <g fill="#969696" fill-opacity="1.00" stroke="None">
        <path
            d="
M 252.00 175.00 
C 254.22 172.98 252.41 168.84 253.00 166.00
C 266.33 166.00 279.67 166.00 293.00 166.00
C 293.61 169.51 292.19 175.76 293.00 179.00 C 293.81 182.24 291.01 189.07 294.00 191.00
C 296.29 191.21 298.70 191.00 301.00 191.00
C 301.07 190.99 301.00 190.00 301.00 190.00
C 298.67 190.05 296.33 189.96 294.00 190.00
C 293.39 181.74 295.26 172.82 293.00 165.00
C 279.33 165.00 265.67 165.00 252.00 165.00
C 252.00 168.33 252.00 171.67 252.00 175.00 Z" />
    </g>
    <g fill="#666666" fill-opacity="1.00" stroke="None">
        <path
            d="
M 301.00 190.00 
C 301.00 182.00 301.00 174.00 301.00 166.00
C 301.00 165.50 301.00 165.00 301.00 165.00
C 298.33 165.00 295.67 165.00 293.00 165.00
C 295.26 172.82 293.39 181.74 294.00 190.00
C 296.33 189.96 298.67 190.05 301.00 190.00 Z" />
    </g>
    <g fill="#969696" fill-opacity="1.00" stroke="None">
        <path
            d="
M 301.00 166.00 
C 306.70 166.52 313.08 165.48 318.00 165.00
C 312.33 165.00 306.67 165.00 301.00 165.00
C 301.00 165.00 301.00 165.50 301.00 166.00 Z" />
    </g>
    <g fill="#C4C4C4" fill-opacity="1.00" stroke="None">
        <path
            d="
M 301.00 166.00 
C 301.00 174.00 301.00 182.00 301.00 190.00
C 301.00 190.00 301.07 190.99 301.00 191.00
C 306.67 191.00 312.33 191.00 318.00 191.00
C 318.00 182.67 318.00 174.33 318.00 166.00
C 327.61 165.35 337.41 166.86 347.00 166.00
C 347.07 165.51 347.00 165.00 347.00 165.00
C 337.33 165.00 327.67 165.00 318.00 165.00
C 313.08 165.48 306.70 166.52 301.00 166.00 Z" />
    </g>
    <g fill="#666666" fill-opacity="1.00" stroke="None">
        <path
            d="
M 347.00 166.00 
C 344.49 170.44 335.91 166.83 331.00 168.00
C 331.00 176.33 331.00 184.67 331.00 193.00
C 335.92 194.51 347.54 189.33 347.00 197.00
C 341.67 197.00 336.33 197.00 331.00 197.00
C 331.00 205.00 331.00 213.00 331.00 221.00
C 354.33 221.00 377.67 221.00 401.00 221.00
C 401.00 213.00 401.00 205.00 401.00 197.00
C 395.33 197.00 389.67 197.00 384.00 197.00
C 372.00 197.00 360.00 197.00 348.00 197.00
C 348.10 189.88 358.21 193.75 364.00 193.00 C 369.79 192.25 377.99 193.57 384.00 193.00
C 389.67 193.00 395.33 193.00 401.00 193.00
C 401.00 184.67 401.00 176.33 401.00 168.00
C 395.33 168.00 389.67 168.00 384.00 168.00
C 384.00 168.00 383.50 168.00 383.00 168.00
C 371.33 168.00 359.67 168.00 348.00 168.00
C 348.04 167.00 347.95 166.00 348.00 165.00
C 348.00 165.00 347.50 165.00 347.00 165.00
C 347.00 165.00 347.07 165.51 347.00 166.00 Z" />
    </g>
    <g fill="#666666" fill-opacity="1.00" stroke="None">
        <path
            d="
M 462.00 197.00 
C 450.00 197.00 438.00 197.00 426.00 197.00
C 426.10 189.88 436.21 193.75 442.00 193.00 C 447.79 192.25 455.99 193.57 462.00 193.00
C 467.67 193.00 473.33 193.00 479.00 193.00
C 479.00 184.67 479.00 176.33 479.00 168.00
C 473.67 168.00 468.33 168.00 463.00 168.00
C 463.00 168.00 462.50 168.00 462.00 168.00
C 456.61 168.00 448.07 168.67 443.00 168.00 C 437.93 167.33 429.29 170.40 426.00 167.00
C 420.82 169.16 414.61 167.46 409.00 168.00
C 409.00 176.33 409.00 184.67 409.00 193.00
C 413.92 194.51 425.54 189.33 425.00 197.00
C 419.67 197.00 414.33 197.00 409.00 197.00
C 409.00 205.00 409.00 213.00 409.00 221.00
C 432.33 221.00 455.67 221.00 479.00 221.00
C 479.00 213.00 479.00 205.00 479.00 197.00
C 473.33 197.00 467.67 197.00 462.00 197.00 Z" />
    </g>
    <g fill="#E99D90" fill-opacity="1.00" stroke="None">
        <path
            d="
M 29.00 178.00 
C 26.89 176.48 24.10 172.36 23.00 170.00
C 22.91 169.81 21.98 167.94 22.00 168.00
C 22.53 172.32 25.16 175.65 29.00 178.00 Z" />
    </g>
    <g fill="#CC6A16" fill-opacity="1.00" stroke="None">
        <path
            d="
M 36.00 181.00 
C 37.00 180.06 47.51 180.55 49.00 181.00
C 55.84 183.05 62.91 195.32 68.00 200.00
C 68.79 200.72 70.34 201.27 71.00 202.00
C 69.19 198.31 64.45 194.44 61.25 191.75 C 58.05 189.06 54.45 182.90 51.00 181.00
C 46.80 180.61 39.76 178.22 36.00 181.00 Z" />
    </g>
    <g fill="#FDFBD7" fill-opacity="1.00" stroke="None">
        <path
            d="
M 70.00 204.00 
C 69.63 202.30 69.52 201.91 68.00 201.00
C 64.11 200.71 60.64 199.25 57.00 198.00
C 49.21 195.33 39.48 191.79 37.00 183.00
C 36.85 182.78 36.10 181.05 36.00 181.00
C 36.00 181.00 35.39 181.21 35.00 181.00
C 31.56 185.30 43.51 193.75 47.93 196.07 C 52.34 198.40 65.07 201.18 70.00 204.00 Z" />
    </g>
    <g fill="#F9CB22" fill-opacity="1.00" stroke="None">
        <path
            d="
M 37.00 183.00 
C 41.70 190.03 49.93 194.69 57.00 198.00
C 60.64 199.25 64.11 200.71 68.00 201.00
C 67.78 200.87 68.00 200.00 68.00 200.00
C 64.59 197.62 61.62 192.95 58.25 190.75 C 54.87 188.55 52.34 182.23 49.00 181.00
C 47.51 180.55 37.00 180.06 36.00 181.00
C 36.10 181.05 36.85 182.78 37.00 183.00 Z" />
    </g>
    <g fill="#F0A427" fill-opacity="1.00" stroke="None">
        <path
            d="
M 68.00 200.00 
C 62.91 195.32 55.84 183.05 49.00 181.00
C 52.34 182.23 54.87 188.55 58.25 190.75 C 61.62 192.95 64.59 197.62 68.00 200.00 Z" />
    </g>
    <g fill="#B33023" fill-opacity="1.00" stroke="None">
        <path
            d="
M 71.00 202.00 
C 71.20 202.40 71.00 203.00 71.00 203.00
C 79.59 206.85 83.41 217.82 96.00 214.00 C 108.59 210.18 119.56 216.87 132.00 214.00
C 132.47 215.88 130.94 218.93 133.00 220.00
C 133.00 214.67 133.00 209.33 133.00 204.00
C 122.89 201.69 114.86 191.61 116.00 181.00
C 94.48 179.49 72.48 183.02 51.00 181.00
C 54.45 182.90 58.05 189.06 61.25 191.75 C 64.45 194.44 69.19 198.31 71.00 202.00 Z" />
    </g>
    <g fill="#F9E686" fill-opacity="1.00" stroke="None">
        <path
            d="
M 57.00 198.00 
C 49.93 194.69 41.70 190.03 37.00 183.00
C 39.48 191.79 49.21 195.33 57.00 198.00 Z" />
    </g>
    <g fill="#212121" fill-opacity="1.00" stroke="None">
        <path
            d="
M 384.00 197.00 
C 384.00 195.67 384.00 194.33 384.00 193.00
C 377.99 193.57 369.79 192.25 364.00 193.00 C 358.21 193.75 348.10 189.88 348.00 197.00
C 360.00 197.00 372.00 197.00 384.00 197.00 Z" />
    </g>
    <g fill="#202020" fill-opacity="1.00" stroke="None">
        <path
            d="
M 462.00 197.00 
C 462.00 195.67 462.00 194.33 462.00 193.00
C 455.99 193.57 447.79 192.25 442.00 193.00 C 436.21 193.75 426.10 189.88 426.00 197.00
C 438.00 197.00 450.00 197.00 462.00 197.00 Z" />
    </g>
    <g fill="#E2BAB3" fill-opacity="1.00" stroke="None">
        <path
            d="
M 68.00 201.00 
C 69.52 201.91 69.63 202.30 70.00 204.00
C 70.99 208.57 67.61 218.74 71.00 222.00
C 70.96 222.00 71.00 221.00 71.00 221.00
C 71.00 215.00 71.00 209.00 71.00 203.00
C 71.00 203.00 71.20 202.40 71.00 202.00
C 70.34 201.27 68.79 200.72 68.00 200.00
C 68.00 200.00 67.78 200.87 68.00 201.00 Z" />
    </g>
    <g fill="#832418" fill-opacity="1.00" stroke="None">
        <path
            d="
M 71.00 221.00 
C 91.50 219.15 112.50 222.85 133.00 221.00
C 133.00 221.00 133.00 220.50 133.00 220.00
C 130.94 218.93 132.47 215.88 132.00 214.00
C 119.56 216.87 108.59 210.18 96.00 214.00 C 83.41 217.82 79.59 206.85 71.00 203.00
C 71.00 209.00 71.00 215.00 71.00 221.00 Z" />
    </g>
    <g fill="#B63123" fill-opacity="1.00" stroke="None">
        <path
            d="
M 148.00 221.00 
C 148.00 218.67 148.00 216.33 148.00 214.00
C 151.22 214.56 155.83 213.19 158.00 214.00
C 158.39 214.21 159.00 214.00 159.00 214.00
C 166.20 208.67 180.83 215.02 190.00 213.00 C 199.17 210.98 212.45 214.51 222.00 213.00
C 222.00 212.00 222.00 211.00 222.00 210.00
C 211.48 209.07 197.14 211.25 187.00 210.00 C 176.86 208.75 160.77 215.03 159.00 204.00
C 153.00 204.00 147.00 204.00 141.00 204.00
C 140.04 208.75 141.50 212.67 147.00 211.00
C 145.93 214.19 147.99 218.56 148.00 221.00 Z" />
    </g>
    <g fill="#B26A63" fill-opacity="1.00" stroke="None">
        <path
            d="
M 159.00 214.00 
C 169.32 213.07 180.80 215.24 191.00 214.00 C 201.20 212.76 212.15 216.45 222.00 214.00
C 223.46 212.96 222.90 211.69 223.00 210.00
C 223.00 210.00 222.50 210.00 222.00 210.00
C 222.00 211.00 222.00 212.00 222.00 213.00
C 212.45 214.51 199.17 210.98 190.00 213.00 C 180.83 215.02 166.20 208.67 159.00 214.00 Z" />
    </g>
    <g fill="#812117" fill-opacity="1.00" stroke="None">
        <path
            d="
M 148.00 221.00 
C 150.22 219.43 155.50 222.18 158.00 221.00
C 158.00 218.67 158.00 216.33 158.00 214.00
C 155.83 213.19 151.22 214.56 148.00 214.00
C 148.00 216.33 148.00 218.67 148.00 221.00 Z" />
    </g>
    <g fill="#D99B8C" fill-opacity="1.00" stroke="None">
        <path
            d="
M 148.00 221.00 
C 145.73 229.48 147.62 239.08 147.00 248.00
C 144.00 248.00 141.00 248.00 138.00 248.00
C 138.25 248.25 138.00 249.00 138.00 249.00
C 141.33 249.00 144.67 249.00 148.00 249.00
C 148.00 240.00 148.00 231.00 148.00 222.00
C 151.67 222.00 155.33 222.00 159.00 222.00
C 158.82 219.35 159.24 216.65 159.00 214.00
C 159.00 214.00 158.39 214.21 158.00 214.00
C 158.00 216.33 158.00 218.67 158.00 221.00
C 155.50 222.18 150.22 219.43 148.00 221.00 Z" />
    </g>
    <g fill="#C48D86" fill-opacity="1.00" stroke="None">
        <path
            d="
M 71.00 222.00 
C 90.96 223.80 111.94 221.99 132.00 222.00
C 132.50 222.00 133.00 222.00 133.00 222.00
C 133.00 222.00 133.00 221.50 133.00 221.00
C 112.50 222.85 91.50 219.15 71.00 221.00
C 71.00 221.00 70.96 222.00 71.00 222.00 Z" />
    </g>
    <g fill="#F7D7C9" fill-opacity="1.00" stroke="None">
        <path
            d="
M 138.00 249.00 
C 138.00 249.00 138.25 248.25 138.00 248.00
C 138.00 248.00 137.40 248.20 137.00 248.00
C 134.19 246.63 133.47 244.78 133.00 242.00
C 131.94 235.74 133.00 228.36 133.00 222.00
C 133.00 222.00 132.50 222.00 132.00 222.00
C 131.42 228.46 128.79 248.02 138.00 249.00 Z" />
    </g>
    <g fill="#EE9585" fill-opacity="1.00" stroke="None">
        <path
            d="
M 137.00 248.00 
C 135.64 246.72 133.36 243.56 133.00 242.00
C 133.47 244.78 134.19 246.63 137.00 248.00 Z" />
    </g>
</svg>